<svg width="87" height="120" viewBox="0 0 87 120" fill="none" xmlns="http://www.w3.org/2000/svg">
<path d="M40.4349 86.9649C40.0342 86.7446 39.6536 86.5442 39.2729 86.3239L38.9124 86.1235C38.6519 85.9833 38.3915 85.823 38.1311 85.6828L37.7104 85.4424C37.4699 85.3022 37.2295 85.1619 36.9891 85.0217L36.5885 84.7813C36.3481 84.6411 36.1077 84.4808 35.8673 84.3406L35.4866 84.1002C35.2462 83.9399 34.9858 83.7796 34.7254 83.6194L34.4249 83.419C34.1043 83.1987 33.7638 82.9783 33.4432 82.7579L33.4032 82.7379C32.722 82.2771 32.0209 81.7763 31.3397 81.2755L31.1995 81.1753C30.919 80.975 30.6386 80.7546 30.3581 80.5543L30.1778 80.414C29.8973 80.2137 29.6369 79.9933 29.3765 79.793L29.2162 79.6728C28.9357 79.4524 28.6352 79.212 28.3548 78.9917L28.2746 78.9316C26.5718 77.5492 24.929 76.0668 23.3865 74.5442L22.7654 73.9432L21.904 73.9633C21.7237 73.9633 21.5234 73.9633 21.3431 73.9633C20.5618 73.9633 19.7604 73.9032 18.9591 73.803C17.9975 73.6828 17.2162 73.1419 16.6753 72.2604C16.1544 71.379 15.5935 70.4574 15.2329 69.4357C14.9124 68.4741 14.6519 67.5125 14.4115 66.571V66.5309C14.3314 66.2304 14.2513 65.9299 14.1711 65.6294L14.0109 65.0083L13.51 64.6077C13.0893 64.2671 12.6686 63.9265 12.2479 63.586L11.106 62.6845L9.90401 63.4858C9.3631 63.8464 8.72203 64.0668 8.02087 64.1269C7.21953 64.207 6.43823 64.2471 5.67696 64.3072L5.27629 64.3272C5.21619 64.3272 5.13606 64.3272 5.07596 64.3272C3.85392 64.3272 2.87229 63.606 2.45159 62.424L2.31135 62.0033C1.95075 60.9816 1.59015 59.9399 1.44992 58.818C1.28965 57.576 1.24958 56.3339 1.20952 55.1319V55.0518C1.18948 54.6711 1.18948 54.3105 1.16945 53.9299L1.14942 53.429L0.909015 53.0083C-0.192821 51.1252 -0.292988 49.0417 0.608514 47.1386L0.628547 47.0785C0.728714 46.8581 0.848915 46.5977 0.989149 46.3573L1.18948 45.9766L1.22955 45.2154L1.20952 45.0351C1.00918 43.4124 1.75042 41.7496 3.53339 39.9666L4.21452 39.2654L4.01419 37.8431L3.79382 37.4825C3.73372 37.3823 3.67362 37.2621 3.63356 37.1419C3.53339 36.8214 3.53339 36.4808 3.61352 36.1402L3.73372 35.7396L3.51336 34.0568C2.13105 23.5192 3.35309 15.8865 3.41319 15.5659L4.01419 11.9599L43.1995 0L82.3648 11.8598L82.9858 15.606C83.0058 15.6861 83.0459 16.0067 83.0459 16.0868L83.1461 16.828V16.8881L83.2262 17.6094V17.6294L83.2863 18.2905L83.3063 18.6711L83.3865 19.9132C83.6669 24.7212 83.5668 32.3339 81.5634 41.0885L81.3631 41.97L81.884 42.7112C81.9641 42.8114 82.0242 42.9316 82.0843 43.0317C82.505 43.813 82.7053 44.6144 82.8856 45.3957L83.0259 45.9366L83.2663 46.2771C83.4265 46.4775 83.5467 46.7179 83.6669 47.0384L83.8272 47.4591L84.1477 47.7796C84.5484 48.1803 84.7888 48.7212 84.889 49.4023C85.0092 50.2237 85.1093 51.025 85.1895 51.6461L85.3698 53.0885L86.5518 53.3088L86.4516 54.5309C86.4316 54.7312 86.4115 54.9315 86.4115 55.1319C86.3715 55.6327 86.3514 56.0935 86.2913 56.5943C86.2312 57.015 86.1711 57.4157 86.091 57.8164L86.0709 57.8965C86.0309 58.0968 85.9908 58.3172 85.9708 58.5175C85.7104 60.1603 84.8489 61.6628 83.3664 63.0851C82.9257 63.5058 82.6653 63.9265 82.505 64.4875C81.6436 67.3523 79.6202 69.1152 76.6553 69.576C74.5518 69.8965 72.929 70.0367 71.3865 70.0367C70.8055 70.0367 70.2446 70.0167 69.6836 69.9766C69.3431 69.9566 69.0225 69.9165 68.722 69.8564L67.5801 69.6361L66.8189 70.5175C66.6386 70.7379 66.4382 70.9583 66.2379 71.1786L66.1778 71.2387C65.5167 71.98 64.8356 72.7212 64.1544 73.4224L64.0342 73.5426C63.3531 74.2437 62.6119 74.9649 61.8906 75.6461L61.7705 75.7663C61.4099 76.1068 61.0292 76.4474 60.6486 76.788L60.5284 76.8881C60.1678 77.2087 59.7871 77.5492 59.4065 77.8698L59.3063 77.9499C58.9257 78.2704 58.525 78.611 58.1244 78.9316L57.924 79.0918C57.1227 79.7329 56.2813 80.394 55.4399 81.015L55.1995 81.1953C54.7588 81.5159 54.3381 81.8364 53.9174 82.1169L53.7972 82.197C53.3965 82.4775 52.9758 82.7579 52.5751 83.0384L52.3147 83.2187C51.874 83.4992 51.4332 83.7997 50.9724 84.0801L50.712 84.2404C50.2713 84.5209 49.8506 84.7813 49.4499 85.0217L49.2496 85.1419C48.8088 85.4023 48.3481 85.6828 47.8272 85.9633L47.5067 86.1436C46.9457 86.4641 46.4649 86.7245 46.0042 86.9649L43.2195 88.4674L40.4349 86.9649Z" fill="#EFEFEF"/>
<path d="M27.4733 54.8514C27.4733 54.8514 31.7003 55.8331 31.9207 55.8331C32.141 55.8331 38.4315 56.9149 39.0726 57.1352C39.7137 57.3556 45.1427 58.8781 46.5651 58.9783C47.9674 59.0785 54.0576 59.7997 55.0392 59.7596C56.0208 59.7195 66.7587 59.7195 66.7587 59.7195C66.7587 59.7195 72.9491 58.4174 73.0492 58.4174C73.1494 58.4174 76.6352 56.8948 76.9557 56.7947C77.2763 56.6945 79.6603 55.3923 80.0008 55.2721C80.3214 55.172 82.505 54.4107 82.505 54.4107L84.308 54.3105H84.6886L85.1895 54.4107L85.0893 56.2538L84.8689 57.8765L84.4282 59.4992L83.7871 60.7012L82.8055 62.0034L81.9441 62.8648L80.4215 64.3873L78.4783 65.7897L75.5534 66.1102L73.0492 66.4307L70.1244 65.8898L52.3347 62.0835L35.9474 59.4791L27.4733 57.015L25.8506 55.4925L27.4733 54.8514Z" fill="white"/>
<path d="M75.0927 41.1887L77.0559 41.6895C77.0559 41.6895 77.5367 42.571 78.3781 42.571C79.2195 42.591 79.7604 42.8114 80.4015 43.2321C81.0426 43.6728 81.2629 44.4341 81.8039 46.1569C82.3448 47.8998 82.0242 48.3205 82.0242 48.3205L71.1862 53.97H65.5367L71.1862 50.0835L72.5885 43.4524L75.0927 41.1887Z" fill="white"/>
<path d="M5.4365 40.0267C6.01746 39.7062 6.55836 39.3256 7.15937 39.0451C7.9006 38.7045 8.66187 38.424 9.42314 38.1436C10.0642 37.8831 10.0642 37.8831 10.0442 37.202C10.5851 37.202 11.146 37.202 11.767 37.202C11.4665 37.3222 14.5317 37.1619 15.6736 39.1052C15.8138 38.9249 15.8939 38.8247 15.9741 38.7245C15.914 38.7045 15.8939 38.6845 15.8739 38.6644C15.7537 38.6244 15.5534 38.6244 15.4933 38.5242C14.732 37.4023 13.5901 37.0618 12.328 37.0618C10.7453 37.0818 9.14267 37.1619 7.56004 37.182C6.97907 37.182 6.3981 37.1619 5.83716 37.0618C5.25619 36.9416 5.17606 36.6611 5.4365 36.2604C6.23783 36.2604 6.97907 36.3406 7.70027 36.2404C10.0442 35.9599 12.348 36 14.6118 36.8013C14.8121 36.8614 15.1727 36.8414 15.2729 36.7212C15.4532 36.4808 15.4933 36.1803 15.2929 35.8197C15.0125 35.3389 14.8722 34.7579 14.6719 34.217C14.4515 33.6761 14.2312 33.1553 13.9908 32.5543C14.5317 32.4942 15.2128 32.4341 15.9741 32.3539C15.9741 33.4357 15.9741 34.4574 15.9741 35.4591C15.9741 35.8397 15.8939 36.2404 16.2345 36.581C16.3146 36.6611 16.2545 36.8815 16.2545 37.0818C17.0559 37.1219 17.8372 37.182 18.6185 37.222C18.6185 37.202 18.6185 37.182 18.6385 37.182C18.358 37.1018 18.0976 37.0217 17.8171 36.9416C17.8171 36.9015 17.8171 36.8614 17.8372 36.8013C18.7988 36.8013 19.7604 36.7212 20.7019 36.8214C24.7086 37.182 28.6752 37.7229 32.5417 38.8848C35.6068 39.8064 38.2111 41.4892 40.2946 43.9332C40.9357 44.6745 41.4165 45.5559 41.8973 46.4574C38.1911 42.8715 33.7236 41.2287 28.6352 41.1887C28.6552 41.2287 28.6552 41.2688 28.6752 41.3089C28.6953 41.3489 28.7153 41.389 28.7353 41.4491C28.6752 41.4491 28.6151 41.4691 28.555 41.4491C26.5317 41.0885 24.6485 40.2671 22.8054 39.3856C22.4448 39.2254 22.1644 39.1853 21.8639 39.4257C21.5433 39.6862 21.2228 39.606 20.8622 39.5459C19.9006 39.3456 18.919 39.2254 17.9173 39.0651C17.6368 40.6478 16.6752 40.0668 15.8338 39.7863C15.7537 40.3072 15.4732 40.5476 15.0125 40.6277C14.8722 40.6478 14.712 40.8281 14.6519 40.9683C14.2913 41.97 13.9507 42.9716 13.6502 43.9933C13.4499 44.6945 13.7303 45.3356 14.0709 45.9566C14.4515 45.3756 14.7921 44.8147 15.1727 44.2738C16.4148 42.571 18.0976 41.5893 20.1811 41.4291C20.7019 41.389 21.2428 41.6695 21.7837 41.8297C21.8839 41.8498 21.9841 42.0501 21.9841 42.1703C21.8839 43.1119 21.8038 44.0735 21.6435 44.995C21.5834 45.2955 21.323 45.596 21.1026 45.8564C20.1811 46.8781 19.4799 46.8982 18.4782 45.9766C18.2178 45.7563 17.9774 45.5159 17.717 45.2755C17.4365 45.0351 17.156 44.8748 16.7754 45.1152C16.6953 45.1553 16.555 45.1753 16.4749 45.1553C15.5333 44.8548 14.8322 45.4558 14.6318 46.217C14.3514 47.3189 14.0509 48.4407 13.9908 49.5626C13.8906 51.2855 13.9507 53.0284 13.9507 54.7513C13.9507 54.9716 13.9507 55.172 13.9106 55.3923C13.4098 53.4892 13.3096 51.5459 13.3898 49.5426C11.3664 49.1018 9.62347 47.8998 7.4198 47.5392C7.64017 48.7813 7.8405 49.9432 8.06087 51.0851C8.28124 52.1269 8.5617 53.1486 8.78207 54.1903C8.8622 54.5509 8.90227 54.9516 8.82214 55.3122C8.742 55.6728 8.82214 55.8531 9.12264 56.0735C10.6652 57.1953 12.328 58.0167 14.2111 58.4174C12.0876 59.0584 10.1443 58.2571 8.06087 57.5559C8.70194 58.2972 9.28291 58.9783 9.84384 59.6394C9.80377 59.6795 9.76371 59.7195 9.70361 59.7596C9.60344 59.6594 9.48324 59.5793 9.40311 59.4591C8.84217 58.778 8.28124 58.0968 7.7203 57.4157C7.64017 57.3155 7.4799 57.2755 7.3597 57.1953C6.6986 56.8347 6.0375 56.4741 5.45653 56.1736C5.7971 55.6928 6.11763 55.2721 6.41813 54.8514C6.6986 54.4107 6.97907 54.3506 7.39977 54.6511C7.58007 54.7913 7.76037 54.9516 7.94067 55.0918C8.10094 55.2321 8.28124 55.3523 8.56171 55.5927C8.56171 55.0518 8.64184 54.611 8.54167 54.2104C8.18107 52.4274 7.76037 50.6444 7.37973 48.8614C7.27957 48.4207 7.25953 47.98 7.19943 47.4791C6.6986 47.4391 6.2178 47.379 5.737 47.399C5.09593 47.419 4.87556 47.7997 5.09593 48.4007C5.33633 49.0417 5.63683 49.6628 5.89726 50.3038C6.3981 51.5058 6.6385 52.7479 6.338 54.0701C6.11763 55.0317 5.65686 55.6528 4.85553 56.0134C4.83549 55.8331 4.83549 55.6528 4.81546 55.4925C4.69526 54.1302 4.57506 52.768 4.43483 51.3857C4.43483 51.3055 4.41479 51.1853 4.37473 51.1252C4.25452 50.9649 4.11429 50.8047 3.97406 50.6444C3.83382 50.8047 3.67356 50.9249 3.57339 51.1052C3.45319 51.3456 3.41312 51.606 3.31296 51.9265C3.33299 50.6043 3.63349 49.9032 4.25453 49.8631C4.03416 49.182 3.83382 48.5209 3.63349 47.9399C4.11429 46.8381 4.61513 45.7563 5.07589 44.6745C5.23616 44.2938 5.41646 44.1336 5.81713 44.1336C7.6602 44.1336 9.38307 44.6544 11.0859 45.2755C11.9674 45.596 12.8288 45.9366 13.8906 46.3372C12.7286 44.2538 13.7904 42.5509 14.4115 40.788C13.4098 40.5276 12.9891 40.788 12.8689 41.7897C12.8288 42.1703 12.8088 42.5509 12.8088 42.9316C12.8088 43.3122 12.6285 43.5927 12.2679 43.6127C11.6869 43.6728 11.0859 43.7129 10.525 43.6327C9.18274 43.4524 7.88057 43.0918 6.53833 42.9516C4.97573 42.8114 3.61346 43.2922 2.73199 44.8748C2.67189 43.9332 3.03249 43.2321 3.31296 42.5109C4.03416 41.6895 4.73533 40.8681 5.4365 40.0267Z" fill="white"/>
<path d="M10.7654 61.1419C9.24285 60.4007 7.64018 59.9399 5.87724 60.1002C5.99744 59.5793 6.33801 59.399 6.75871 59.399C9.48325 59.4591 12.7086 60.4207 14.4315 63.2254C13.5701 62.7245 12.7086 62.2037 11.8272 61.6828C11.4866 61.5025 11.126 61.3222 10.7654 61.1419Z" fill="white"/>
<path d="M76.9557 47.1386C76.9557 46.5576 76.9557 46.0768 76.9557 45.7162C77.2161 45.7963 77.4766 45.8965 77.737 45.9766C77.8171 45.9967 77.9574 46.0167 77.9774 46.0768C78.2378 46.6978 78.5984 46.3172 78.8388 46.1169C79.9006 45.1953 79.4198 43.5125 78.318 43.2922C79.0993 43.0117 79.7203 43.4124 79.9206 44.1937C80.121 44.9549 79.8806 45.616 79.4999 46.177C79.2996 46.4574 78.7186 46.4574 78.2979 46.5776C78.0575 46.6578 77.8372 46.7179 77.5968 46.818C77.3564 46.9182 77.156 47.0384 76.9557 47.1386Z" fill="black"/>
<path d="M81.5834 46.6978C81.1627 47.399 80.702 47.8598 80.0008 48C79.7604 47.5993 79.52 47.2387 79.2796 46.8381C79.52 46.5576 79.7804 46.2571 80.141 45.8564C80.5417 46.0768 81.0626 46.3773 81.5834 46.6978Z" fill="black"/>
<path d="M77.6368 45.015C77.5166 44.8548 77.3964 44.7145 77.2762 44.5543C77.3163 44.5543 77.3363 44.5543 77.3764 44.5342C77.3564 44.3139 77.3363 44.0735 77.2963 43.7129C77.2963 43.7129 77.3964 43.5927 77.5367 43.4725C77.5567 43.5125 77.5968 43.5326 77.5968 43.5526C77.6569 43.8932 77.737 44.1937 77.9574 44.4942C78.1577 44.7746 78.0175 44.995 77.717 45.0952C77.6769 45.0952 77.6569 45.0551 77.6368 45.015Z" fill="black"/>
<path d="M77.6368 45.015C77.6569 45.0551 77.6969 45.0751 77.717 45.1152C77.757 45.2755 77.8372 45.4357 77.8171 45.576C77.7971 45.6561 77.6168 45.7763 77.5367 45.7563C77.1961 45.6962 76.9757 45.2154 77.136 44.7947C77.2963 44.8748 77.4565 44.9549 77.6368 45.015Z" fill="black"/>
<path d="M78.3781 46.0167C79.1794 45.5159 78.318 44.6144 78.8589 44.0735C79.2796 44.6745 79.0592 45.7162 78.3781 46.0167Z" fill="black"/>
<path d="M63.8539 37.7028C62.4716 36.8214 61.1494 36.1402 59.5667 36.2604C59.4065 36.2805 59.2262 36.1803 59.106 36.0601C58.7053 35.6995 58.3447 35.2988 57.9841 34.778C58.8055 34.9583 59.6469 35.0785 60.4682 35.3189C61.8505 35.7195 63.0325 36.4407 63.954 37.5826C64.0542 37.7028 64.2746 37.7629 64.4549 37.783C66.5984 38.0234 68.762 38.1836 70.9056 38.4841C71.6669 38.5843 72.4482 38.8848 73.1494 39.2254C73.6101 39.4458 73.9707 39.9065 74.3313 40.3072C74.4315 40.4074 74.4315 40.6478 74.3914 40.808C74.1911 41.6895 73.51 42.0301 72.7287 42.1302C71.4065 42.3306 70.0843 42.4708 68.742 42.571C65.3764 42.8715 62.0108 42.6912 58.6652 42.4307C54.7787 42.1302 50.8923 41.6895 47.0258 41.2688C44.8422 41.0284 42.7587 40.3473 40.7954 39.3456C38.111 37.9633 35.2262 37.2821 32.2412 36.9616C30.4782 36.7813 28.7153 36.6811 26.9524 36.4407C27.7136 36.4407 28.4749 36.4407 29.2362 36.4407C33.924 36.4007 38.6318 36.1803 43.3196 36.3606C48.4682 36.5409 53.5968 37.0618 58.7253 37.4424C60.308 37.5626 61.8906 37.6427 63.4933 37.7429C63.5934 37.7429 63.6736 37.7229 63.8539 37.7028Z" fill="white"/>
<path d="M63.1126 59.4591C60.2478 59.5793 57.3831 59.7195 54.4983 59.8397C53.5767 59.8798 53.156 59.4791 53.136 58.5776C53.116 57.6761 53.0959 56.7746 53.0959 55.8731C53.0959 55.0117 53.5367 54.571 54.3981 54.571C60.2478 54.5109 66.0976 54.4708 71.9473 54.4307C72.7687 54.4307 73.2094 54.8514 73.2295 55.7129C73.2495 56.394 73.2495 57.0952 73.2495 57.7763C73.2495 58.6578 72.8288 59.0785 71.9273 59.1185C69.1026 59.2387 66.2579 59.3589 63.4332 59.4791C63.333 59.4391 63.2328 59.4591 63.1126 59.4591Z" fill="white"/>
<path d="M21.5834 60.1803C24.5283 59.5993 26.2312 57.8564 27.1527 55.2521C27.2529 56.6945 25.4298 58.8381 23.2662 59.9599C23.8071 60.3806 24.4081 60.8214 24.9891 61.2821C25.6302 61.783 26.2512 62.3239 26.8722 62.8247C28.7554 64.3272 30.9991 64.8481 33.323 65.0284C35.707 65.2287 38.0709 65.369 40.4549 65.5893C41.4365 65.6895 42.4182 65.9099 43.3798 66.1102C43.6202 66.1703 43.8405 66.3706 44.0609 66.4908C44.0409 66.5509 44.0208 66.611 44.0008 66.6711C43.2996 66.7312 42.6185 66.7913 41.9173 66.8314C38.9324 66.9716 35.9674 67.192 32.9824 67.212C28.6352 67.2321 25.2295 65.2488 22.5651 61.9032C22.1844 61.4224 21.944 60.8414 21.5834 60.1803Z" fill="white"/>
<path d="M17.3965 63.4057C17.3564 63.5059 17.2562 63.6261 17.2963 63.7062C17.6369 64.5476 17.9173 65.4491 18.3981 66.2304C18.9591 67.172 19.7404 67.0918 20.2412 66.1102C20.9223 64.8281 21.1026 63.4257 21.1627 62.0234C21.2228 60.6811 21.1828 59.3389 21.2629 57.9766C21.2829 58.2371 21.323 58.4975 21.343 58.7579C21.4632 61.182 21.3831 63.606 20.742 65.97C20.6018 66.4708 20.4015 66.9716 20.1611 67.4124C19.5801 68.4741 18.7587 68.5142 18.0576 67.5326C17.697 67.0317 17.4165 66.4508 17.1761 65.8498C16.4148 63.8865 16.0943 61.8431 15.914 59.7796C15.6736 57.015 15.6536 54.2504 16.3147 51.5259C16.495 50.7846 16.8155 50.0434 17.1961 49.4023C17.6168 48.6811 18.2779 48.6811 18.8589 49.2821C19.5601 50.0033 19.8005 50.9048 19.9006 51.9065C19.8205 51.7462 19.7404 51.586 19.6602 51.4457C19.5801 51.2855 19.4799 51.1252 19.3798 50.985C18.6786 49.9432 17.9173 49.9833 17.3564 51.1052C16.7754 52.2871 16.6352 53.5893 16.5551 54.9115C16.6753 54.6711 16.7754 54.4107 16.9157 54.1903C17.2362 53.7095 17.5768 53.6895 17.9374 54.1503C18.1177 54.3706 18.2379 54.6311 18.3981 54.8915C18.2379 54.0301 17.8572 53.5893 17.2162 53.5493C17.2162 53.5092 17.2362 53.4491 17.2362 53.409C17.4566 53.4291 17.697 53.409 17.8773 53.5092C18.0576 53.6094 18.1978 53.8097 18.298 53.99C19.2395 55.8331 19.3597 57.8164 19.4198 59.9199C18.318 59.5593 17.0559 59.8998 16.2546 58.778C16.3748 59.6594 16.515 60.5209 16.6352 61.4023C16.7153 61.4023 16.7754 61.4224 16.8556 61.4224C16.9357 61.0217 16.9958 60.621 17.096 60.1402C17.1561 60.3005 17.1961 60.4007 17.2362 60.5409C17.3364 60.4007 17.4365 60.3005 17.5367 60.1803C17.5968 60.2204 17.6769 60.2604 17.6769 60.3005C17.7771 60.7412 17.8372 61.182 17.9574 61.6227C18.0175 61.823 18.1778 62.0033 18.2779 62.1836C18.4382 62.0634 18.6385 61.9633 18.7587 61.803C18.9591 61.5426 19.0993 61.222 19.2596 60.9215C19.4198 61.6628 19.0592 63.3456 18.6385 63.9265C18.2379 64.4474 17.8172 64.3673 17.4766 63.6861C18.2178 64.1469 18.7587 63.6861 18.8389 62.5242C18.338 63.6461 18.338 63.6461 17.3965 63.4057Z" fill="white"/>
<path d="M67.4198 50.8848C67.6001 51.0851 67.7804 51.2654 68.0609 51.5459C67.6602 51.6661 67.1794 51.8464 66.6786 51.9265C66.1978 51.9866 65.717 51.9466 65.1561 51.9466C65.1761 52.207 65.1961 52.4073 65.2162 52.7078C69.2429 51.5259 72.4081 49.3823 74.4916 45.7162C74.3714 46.0167 74.2913 46.3573 74.111 46.6377C73.6502 47.3189 73.2095 48.0601 72.6485 48.6411C70.7053 50.6644 68.4415 52.227 65.6769 52.9282C65.4365 52.9883 65.2362 53.2087 64.9357 53.389C64.8956 53.1887 64.8355 52.9683 64.8155 52.7479C64.4949 49.9232 63.914 47.1586 62.712 44.5342C62.5116 44.1135 62.6318 43.9733 63.0726 43.9933C63.2128 43.9933 63.3931 44.0134 63.4933 44.0935C63.954 44.5342 64.515 44.4541 65.0759 44.4341C67.54 44.394 69.9841 44.3339 72.4482 44.2938C72.9891 44.2938 73.53 44.3339 74.0709 44.414C74.3313 44.4541 74.5717 44.6344 74.8923 44.7947C74.712 45.015 74.6118 45.1352 74.5918 45.1553C74.0509 44.975 73.6101 44.7145 73.1494 44.6745C72.2078 44.5943 71.2462 44.6344 70.2846 44.6344C68.4415 44.6544 66.5985 44.6745 64.7554 44.6945C64.5551 44.6945 64.3747 44.6945 64.1143 44.6945C64.2145 45.1152 64.2345 45.2755 64.7954 45.2554C66.9991 45.1753 69.2228 45.2354 71.4265 45.2755C71.8272 45.2755 72.2479 45.3756 72.6485 45.4157L72.6285 45.3957C72.6485 45.5559 72.6886 45.7362 72.7086 45.9366C72.3881 45.9566 72.0876 45.9766 71.7671 45.9766C71.8071 46.197 71.8272 46.3773 71.8672 46.5576C71.9874 47.0584 72.4081 46.7579 72.6686 46.818C72.909 46.8781 73.1093 46.818 73.0492 46.4975L73.0292 46.5175C73.1293 46.6578 73.2495 46.798 73.3697 46.9583C73.2495 47.3189 72.949 47.5793 72.5283 47.4391C72.2679 47.3389 72.1277 47.7195 71.8272 47.4791C71.6268 47.3189 71.2061 47.4591 70.8255 47.4591C70.8856 47.7796 70.9056 48.0401 70.9657 48.3406C71.3664 48.3406 71.727 48.3406 72.1677 48.3406C71.5267 49.3623 70.545 48.7412 69.7637 49.0217C69.7637 49.202 69.7838 49.4023 69.7838 49.5826C69.6836 49.182 69.5834 48.8013 69.5033 48.4007C69.2829 47.5593 69.0826 46.6978 68.8823 45.8965C68.4816 45.9366 68.1611 45.9566 67.8606 45.9766C67.8606 46.5576 68.0208 46.9182 68.702 46.8381C68.8422 46.818 69.0225 47.1185 69.2028 47.2788C69.1627 47.3189 69.1227 47.3589 69.0826 47.419C68.7821 47.4391 68.5016 47.4391 68.1611 47.4591C68.2412 47.7796 68.3013 48.0401 68.3414 48.2805C68.7621 48.3205 69.1427 48.3406 69.5233 48.3806C69.5033 48.5609 69.4833 48.7212 69.4632 48.9215C69.2829 48.9215 69.1227 48.9215 68.9624 48.9215C68.8021 48.9215 68.6619 48.9416 68.5016 48.9416C68.5016 49.7229 69.1026 50.1035 69.7437 49.7629C69.7838 49.7429 69.7838 49.6027 69.8038 49.5225C69.9841 49.6427 70.1644 49.783 70.3647 49.9232C70.0041 50.5442 69.303 50.3639 68.6819 50.4441C68.6218 50.4441 68.5217 50.2437 68.4616 50.1436C68.3814 48.6611 67.9207 47.2788 67.54 45.9366C67.1594 45.9366 66.8589 45.9366 66.4983 45.9366C66.5784 46.2571 66.6385 46.5376 66.6986 46.7579C67.1193 46.9182 67.8005 46.5376 67.7203 47.399C67.4399 47.419 67.1594 47.4391 66.8389 47.4791C66.899 47.7796 66.9591 48.0401 66.9991 48.2404C67.4198 48.4608 68.141 47.98 68.121 48.9015C67.7804 48.9215 67.4799 48.9416 67.1193 48.9616C67.1794 49.2821 67.2195 49.5426 67.2796 49.823C67.5601 49.823 67.8205 49.783 68.0609 49.8431C68.2011 49.8831 68.3013 50.0434 68.4215 50.1636C68.3814 50.424 68.3814 50.4441 67.9006 50.424C67.5801 50.424 67.2996 50.424 67.4198 50.8848C67.3798 50.6244 67.3197 50.3639 67.2796 50.1035C67.1193 49.5225 66.939 48.9215 66.7788 48.3406C66.5985 47.5392 66.4182 46.7379 66.2379 45.9366C65.8372 45.9566 65.5167 45.9766 65.1961 45.9967C65.2162 46.5776 65.3364 46.9583 66.0175 46.8781C66.1577 46.8581 66.338 47.1586 66.4983 47.3189C66.4582 47.3589 66.4382 47.399 66.3981 47.4391C66.1177 47.4591 65.8372 47.4791 65.5367 47.4992C65.5968 47.7997 65.6569 48.0601 65.717 48.3606C66.0776 48.3606 66.4182 48.3606 66.7587 48.3606C66.7587 48.5409 66.7587 48.7012 66.7587 48.9215C66.4582 48.9416 66.1377 48.9616 65.8372 48.9816C65.9574 49.803 65.9574 49.783 66.7187 49.8431C66.919 49.8631 67.0993 50.0033 67.2996 50.1035C67.0793 50.7245 66.4983 50.2638 66.1177 50.5442C66.1577 50.7846 66.1978 51.025 66.2579 51.3055C66.6786 51.3055 67.0592 51.3055 67.4599 51.3055C67.4198 51.1252 67.4198 51.005 67.4198 50.8848ZM64.8155 45.7362C64.3347 46.1369 64.5551 46.5175 64.7554 46.818C64.9357 47.0584 65.0759 47.1786 64.8756 47.5192C64.7354 47.7396 64.6352 48.2204 65.1761 48.3606C65.3163 48.4007 65.3764 48.6811 65.4766 48.8815C65.2362 48.9416 65.096 48.9816 64.9357 49.0217C64.9758 49.3022 64.9958 49.5426 65.0359 49.8431C65.4365 49.823 65.8572 49.823 65.7571 50.424C65.5567 50.4441 65.3364 50.4441 65.0759 50.4641C65.096 50.7646 65.116 51.025 65.1561 51.3055C65.4966 51.3255 65.7771 51.3456 66.1778 51.3456C65.697 49.4825 65.2562 47.6394 64.8155 45.7362ZM70.8656 48.3205C70.7654 47.8598 70.6652 47.4391 70.5651 47.0384C70.4449 46.6177 70.3247 46.177 70.2445 45.8765C69.8439 45.9165 69.5033 45.9566 69.1828 45.9967C69.1828 46.5977 69.3831 46.9583 70.0442 46.8381C70.505 46.7579 70.4849 47.0985 70.525 47.419C70.1644 47.4391 69.8238 47.4591 69.5033 47.4791C69.6035 48.3606 69.6035 48.3606 70.8656 48.3205ZM71.3263 45.9366C71.0258 45.9566 70.7854 45.9766 70.545 45.9967C70.545 46.6177 70.7053 46.9583 71.3864 46.8581C71.5066 46.8381 71.6669 46.9983 71.8272 47.0785C71.6869 46.5776 71.5467 46.0768 71.3864 45.5559C71.3664 45.5559 71.3464 45.5559 71.3063 45.576C71.3263 45.6761 71.3263 45.7963 71.3263 45.9366Z" fill="white"/>
<path d="M52.535 45.4357C52.535 45.3155 52.5149 45.1953 52.5149 45.1553C52.9357 45.2154 53.3163 45.3155 53.717 45.3356C55.2996 45.3556 56.8822 45.3356 58.4649 45.3356C59.5667 45.3356 60.6886 45.3556 61.7904 45.3356C62.2311 45.3155 62.3513 45.5559 62.3914 45.9366C62.171 45.9566 61.9507 45.9766 61.6902 45.9967C61.7503 46.2771 61.8104 46.5175 61.8705 46.778C62.2512 46.9783 62.9924 46.5376 62.9724 47.4591C62.6919 47.4591 62.3914 47.4591 62.0508 47.4591C62.1109 47.7596 62.151 48.02 62.171 48.2404C62.5717 48.581 63.4131 47.9199 63.4732 48.9416C63.0926 48.9616 62.7119 48.9816 62.3513 48.9816C62.3914 49.8431 62.3914 49.8631 63.2328 49.8431C63.6335 49.8431 63.9139 49.8831 63.8538 50.384C63.6134 50.424 62.4114 50.4641 62.3113 50.4641C61.6902 50.4641 61.0892 50.4641 60.4081 50.4641C60.4482 50.7646 60.5083 51.025 60.5483 51.3456C61.5901 51.3456 62.6318 51.3656 63.6735 51.3456C64.1143 51.3456 64.2745 51.5059 64.1944 51.9867C62.0709 51.8464 59.9273 52.207 57.8038 51.7262L57.8238 51.7462C57.5433 51.6461 57.2829 51.5259 57.0024 51.4257C57.0024 51.3856 57.0024 51.3656 57.0225 51.3255C57.4632 51.3255 57.8839 51.3255 58.3847 51.3255C57.9039 49.4424 57.4432 47.6194 57.0225 45.9366C56.3213 45.9366 55.7804 45.9366 55.2195 45.9366C55.3397 46.8581 55.3397 46.8581 56.141 46.8581C56.3013 46.8581 56.4615 46.8781 56.6218 46.8581C57.0826 46.798 57.2228 47.0184 57.1827 47.4992C56.6619 47.4992 56.141 47.4992 55.6201 47.4992C55.6802 48.3606 55.6802 48.3606 56.4816 48.3606C56.6819 48.3606 56.8822 48.3806 57.0826 48.3606C57.5233 48.3205 57.6635 48.5008 57.6034 49.0017C57.0425 49.0017 56.4816 49.0017 55.8806 49.0017C55.9607 49.3422 56.0208 49.6027 56.0809 49.8831C56.5617 49.8831 57.0225 49.9032 57.4632 49.8831C57.8839 49.8631 58.0442 50.0434 57.964 50.5442C57.323 50.5442 56.7019 50.5442 56.0609 50.5442C56.0408 50.5042 56.0008 50.384 55.9607 50.2638C55.6001 48.7412 55.2195 47.2387 54.8589 45.7563C54.2378 46.197 53.6168 45.8765 53.0959 46.0568C53.1961 46.8982 53.1961 46.8982 53.9574 46.8982C54.1377 46.8982 54.318 46.9182 54.4983 46.8982C54.959 46.8381 55.0993 47.0785 55.0592 47.5392C54.4983 47.5392 53.9574 47.5392 53.4165 47.5392C53.4966 48.4007 53.4966 48.4007 54.2779 48.4007C54.5183 48.4007 54.7587 48.4207 54.9791 48.4007C55.4398 48.3606 55.52 48.601 55.4999 49.0217C55.0191 49.0217 54.5383 49.0417 54.0776 49.0217C53.757 49.0017 53.6569 49.1219 53.6769 49.4224C53.6368 49.3222 53.5968 49.2421 53.5567 49.1419C53.1961 47.9199 52.8355 46.7179 52.4749 45.4958C52.535 45.4157 52.535 45.4357 52.535 45.4357ZM62.1911 48.7212C62.0108 48.8013 61.8104 48.9215 61.6301 48.9416C61.1694 48.9816 60.7086 48.9616 60.0475 48.9616C60.2879 49.3422 60.4081 49.783 60.5884 49.823C61.1493 49.9232 61.7303 49.8631 62.3113 49.8631C62.2512 49.4224 62.2311 49.0618 62.1911 48.7212C61.8906 47.7195 61.6101 46.7379 61.3296 45.7763C60.7487 46.177 60.1276 45.8364 59.5467 46.0167C59.6068 46.2771 59.6669 46.5376 59.747 46.8381C60.1276 46.8381 60.4882 46.8581 60.8488 46.8381C61.2695 46.818 61.6301 46.8381 61.55 47.4791C61.0091 47.4791 60.4682 47.4791 59.8872 47.4791C59.9674 47.8197 60.0275 48.0801 60.0876 48.3406C60.5083 48.3406 60.9089 48.3806 61.2695 48.3205C61.6702 48.2604 61.9106 48.4808 62.1911 48.7212ZM57.7236 47.4391C57.8038 47.7997 57.8639 48.0401 57.924 48.3205C58.3847 48.3205 58.8054 48.3406 59.2061 48.3205C59.6468 48.3005 59.8271 48.4608 59.767 48.9616C59.2061 48.9616 58.6452 48.9616 58.0842 48.9616C58.1243 49.8431 58.1243 49.8431 58.9056 49.8431C59.166 49.8431 59.4064 49.8431 59.6669 49.8431C60.1076 49.823 60.1877 50.0434 60.0876 50.4441C59.5266 50.4441 58.9657 50.4441 58.3647 50.4441C58.4448 50.8047 58.2245 51.2654 58.7854 51.3055C59.3263 51.3456 59.8872 51.3055 60.5083 51.3055C60.0675 49.4224 59.6268 47.5993 59.2261 45.8965C58.545 45.8965 57.964 45.8965 57.343 45.8965C57.4432 46.2771 57.5033 46.5376 57.5433 46.6578C58.1644 47.0985 59.0859 46.2972 59.4665 47.419C58.8455 47.4391 58.3246 47.4391 57.7236 47.4391Z" fill="white"/>
<path d="M48.3881 63.0651C49.9908 63.8064 51.5534 64.5075 53.116 65.2287C53.116 65.2688 53.0959 65.3089 53.0959 65.3489C52.7353 65.369 52.3747 65.409 52.0141 65.4291C46.9657 65.7696 42.0776 65.0484 37.3898 63.0852C34.7854 62.0033 32.8222 60.1202 31.1193 57.8564C31.5801 58.0367 32.0609 58.2371 32.5217 58.3973C32.8422 58.5175 33.1627 58.6377 33.5033 58.7179C33.8439 58.798 34.0442 58.9382 34.1444 59.3389C34.3046 59.98 34.7454 60.4608 35.3063 60.7813C38.2512 62.5443 41.3564 63.8464 44.7821 64.2671C45.5233 64.3473 46.2445 64.4474 46.9858 64.4875C48.2879 64.5676 48.4482 64.3873 48.3881 63.0651Z" fill="white"/>
<path d="M33.4231 29.2287C33.2629 28.4474 32.6418 28.3873 32.0208 28.2271C31.4198 28.0868 30.8388 27.8464 30.2979 27.586C32.3013 27.586 34.3046 27.586 36.3681 27.586C36.1677 28.6277 35.0459 28.5476 34.6252 29.3289C35.0659 29.3289 35.4465 29.3089 35.8272 29.3289C36.3881 29.3489 37.1093 30.2705 36.929 30.7913C36.8889 30.9516 36.5884 31.1119 36.4081 31.1119C34.7854 31.1119 33.1627 31.0718 31.54 31.0117C31.1594 30.9917 30.7387 30.9516 30.7387 30.4307C30.7387 29.8498 31.2195 29.2287 31.6802 29.2087C32.2612 29.2287 32.8622 29.2287 33.4231 29.2287Z" fill="white"/>
<path d="M57.8438 51.7062C59.0659 51.9666 60.3079 52.2471 61.53 52.4474C62.3714 52.5877 63.2128 52.6077 64.0542 52.7078C64.2145 52.7279 64.3747 52.8281 64.5149 52.8882C64.4949 52.9683 64.4749 53.0484 64.4549 53.1286C63.5734 53.0484 62.6719 52.9883 61.7904 52.8882C57.2829 52.4474 53.1961 50.7646 49.3096 48.5409C48.1477 47.8798 47.0859 47.0785 46.3647 45.8965C46.2044 45.6361 45.8839 45.4958 45.5233 45.2154C45.7837 44.995 45.964 44.6945 46.2245 44.5943C46.6852 44.4341 47.2061 44.2938 47.6869 44.2938C52.4548 44.3339 57.2228 44.394 61.9907 44.4541C62.131 44.4541 62.2912 44.4741 62.4315 44.4942C62.4315 44.5543 62.4315 44.5943 62.4515 44.6544C62.2512 44.6745 62.0308 44.7145 61.8305 44.7145C57.6235 44.6544 53.4165 44.5543 49.2094 44.5142C48.4682 44.5142 47.6869 44.5943 46.9657 44.7546C46.1644 44.9349 46.1243 45.3155 46.7053 45.8965C46.7253 45.9165 46.7453 45.9366 46.7654 45.9566C47.0458 46.5376 47.4265 46.9583 48.1677 46.8581C48.4081 46.8381 48.6685 46.9382 48.949 46.9783C48.7086 46.3573 48.4482 45.6561 48.1877 44.9549C48.7487 45.6561 49.55 45.2554 50.2512 45.3957C50.3113 45.576 50.3513 45.7563 50.4315 45.9967C49.8705 45.9967 49.3697 45.9967 48.8288 45.9967C48.9089 46.3172 48.969 46.5576 49.0291 46.8581C49.4699 46.8581 49.8906 46.8982 50.2912 46.8581C50.772 46.818 50.9523 46.9983 50.9123 47.4992C50.0909 47.4992 49.2695 47.4992 48.4682 47.4992C48.4482 47.5392 48.4281 47.5793 48.4281 47.6194C49.0091 47.9599 49.5901 48.2805 50.171 48.621C50.3914 48.7212 50.5917 48.8414 50.8121 48.9416C51.5333 49.3022 52.2745 49.6828 52.9958 50.0434C53.3564 50.1836 53.717 50.3239 54.0575 50.4641C55.3196 50.9048 56.6018 51.3456 57.8639 51.7663L57.8438 51.7062Z" fill="white"/>
<path d="M13.6502 33.6361C13.53 34.5175 13.3898 34.6177 12.5083 34.6978C10.3647 34.8781 8.24118 35.0785 6.17775 35.2788C6.15771 35.3189 6.19778 35.2187 6.29795 35.1586C7.43985 34.177 8.66189 33.3155 10.0843 32.7947C11.146 32.414 12.1878 32.5142 13.2295 32.8347C13.8906 33.0551 14.2913 33.5159 14.4916 34.197C14.6719 34.8781 14.9524 35.5192 15.1527 36.1803C15.1928 36.2805 15.1126 36.4207 15.0926 36.5409C14.9323 36.5008 14.6719 36.5008 14.6519 36.4207C14.4515 35.8397 14.2913 35.2588 14.1711 34.6778C14.0709 34.2771 14.0509 33.8765 13.6502 33.6361Z" fill="white"/>
<path d="M52.8155 53.6494C52.1143 53.6494 51.4131 53.7095 50.732 53.6494C45.7437 53.2087 40.7754 52.6878 35.8672 51.7262C33.9039 51.3456 31.0592 50.0634 29.4365 48.7412C30.0575 49.0017 30.6986 49.222 31.3196 49.5025C34.1243 50.7446 37.0893 51.4457 40.1143 51.8464C43.0191 52.207 45.924 52.5075 48.8288 52.808C50.1911 52.9282 51.5333 53.1085 52.8155 53.6494Z" fill="white"/>
<path d="M34.6252 43.8731C34.8455 43.9132 35.0859 43.9332 35.3063 43.9533C35.4465 43.9733 35.6068 43.9533 35.747 43.9533C35.747 43.9933 35.7671 44.0334 35.7671 44.0935C35.6268 44.1336 35.4666 44.1536 35.3464 44.2337C35.1661 44.374 34.9457 44.5342 34.8656 44.7346C34.7253 45.1152 34.6252 45.5159 34.5651 45.9165C34.545 46.1169 34.5651 46.4574 34.6652 46.5175C35.0859 46.7579 35.5667 47.0985 36.0075 47.0785C36.8288 47.0184 37.6101 46.7179 38.4115 46.4775C38.5517 46.4374 38.6319 46.1369 38.8122 45.9766C38.7921 46.217 38.7721 46.4374 38.752 46.6978C39.4933 47.1185 40.1344 47.7195 41.1561 47.6795C40.8556 46.8381 40.1544 46.3773 39.5534 45.7763C40.1143 45.9766 41.1961 47.1185 41.3764 47.6194C41.4766 47.9199 41.3764 48.1002 41.0759 48.1202C40.7754 48.1402 40.4549 48.1402 40.1544 48.1002C37.1093 47.6394 34.0442 47.4591 30.9791 47.6194C30.5384 47.6394 30.0776 47.5993 29.6369 47.5593C28.4749 47.4391 27.8539 46.5776 27.2729 45.6761C28.0542 46.6377 29.116 46.7579 30.2178 46.7579C30.338 46.7579 30.4783 46.778 30.5784 46.8381C31.3798 47.3389 32.2412 47.2387 33.1026 47.0985C33.303 47.0584 33.5233 47.0985 33.7237 47.1386C34.7053 47.3389 35.6869 47.5593 36.6886 47.1786C36.5484 47.1987 36.4081 47.1987 36.2679 47.2588C35.5667 47.4791 34.9657 47.2788 34.4849 46.798C34.2245 46.5376 34.0242 46.5576 33.7237 46.7179C32.9223 47.1185 31.7604 46.9983 31.2195 46.4775C31.3397 46.4174 31.4799 46.3372 31.6001 46.2771C31.6602 46.3172 31.7203 46.3372 31.7804 46.3773C32.3414 46.778 32.9223 46.6578 33.4232 46.3172C34.3046 45.7162 34.4048 44.8548 34.0442 43.813C34.3247 44.0134 34.4849 44.1336 34.7253 44.2938C34.6853 44.0935 34.6452 43.9733 34.6252 43.8731Z" fill="white"/>
<path d="M31.8004 46.3973C31.7403 46.3573 31.6802 46.3372 31.6201 46.2972C31.7403 46.2771 31.8605 46.2371 31.9607 46.2571C32.6418 46.3773 33.2228 46.197 33.6235 45.616C33.9841 45.0952 34.0041 44.5342 33.7036 43.9733C33.363 43.3523 32.8221 43.1119 32.2812 43.1519C32.2011 43.4725 32.2011 43.813 32.0408 43.9733C31.8806 44.1536 31.56 44.1536 31.2996 44.2538C31.2595 44.2137 31.2195 44.1736 31.1794 44.1336C31.1193 44.4741 31.0592 44.8147 30.9991 45.1553C30.939 45.015 30.8989 44.8948 30.8589 44.7746C30.7988 44.7947 30.7587 44.8147 30.6986 44.8147C30.8589 45.3556 31.0191 45.8965 31.1794 46.4374C30.318 45.7362 30.1577 44.7546 30.7186 43.6127C30.6185 43.4324 30.5183 43.2521 30.3981 43.0718C30.318 43.1519 30.1978 43.2521 30.0375 43.3923C29.8973 43.1119 29.7771 42.8514 29.6569 42.611C29.5166 42.3706 29.3564 42.1302 29.1761 41.8097C32.0208 41.9299 34.7053 42.4508 37.1894 43.813C36.1677 43.4524 35.146 43.0117 34.1043 42.7312C33.0425 42.4307 31.9407 42.2504 30.8388 42.01C30.7988 42.0701 30.7387 42.1503 30.6986 42.2104C30.8789 42.4708 31.0392 42.7513 31.2195 43.0117C32.0408 42.571 32.8021 42.3506 33.6235 42.8715C33.4231 42.8314 33.2428 42.7913 33.0425 42.7713C32.4816 42.6912 31.9807 42.8114 31.4198 43.2922C31.6201 43.2321 31.6802 43.2321 31.7203 43.212C32.3814 42.9115 32.9824 42.9917 33.5233 43.4725C34.0842 43.9733 34.2245 44.6144 34.0241 45.2955C33.8238 45.9766 33.343 46.3973 32.6218 46.4975C32.3814 46.4975 32.0809 46.4174 31.8004 46.3973Z" fill="white"/>
<path d="M31.1794 46.4374C31.0191 45.8965 30.8589 45.3556 30.6986 44.8147C30.7587 44.7947 30.7988 44.7746 30.8589 44.7746C30.8989 44.8948 30.959 45.015 30.9991 45.1553C31.0592 44.7947 31.1193 44.4541 31.1794 44.1336C31.2195 44.1736 31.2595 44.2137 31.2996 44.2538C31.56 44.1736 31.8806 44.1536 32.0408 43.9733C32.2011 43.813 32.2011 43.4725 32.2812 43.1519C32.8221 43.1119 33.3831 43.3723 33.7036 43.9733C34.0041 44.5142 33.9841 45.0952 33.6235 45.616C33.2228 46.197 32.6418 46.3773 31.9607 46.2571C31.8605 46.2371 31.7203 46.2771 31.6201 46.2972C31.4999 46.3573 31.3597 46.4374 31.2395 46.4975C31.2195 46.4775 31.1994 46.4574 31.1794 46.4374ZM32.9423 43.8531C33.0425 44.7346 32.7019 45.3556 31.9206 45.8164C32.4215 45.576 33.0625 45.9366 33.4031 45.3155C33.8038 44.6344 33.1627 44.3139 32.9423 43.8531Z" fill="black"/>
<path d="M50.8121 48.8815C50.5918 48.7813 50.3914 48.6611 50.1711 48.5609C50.2111 48.4808 50.2312 48.3205 50.2712 48.3205C50.6118 48.3005 50.9524 48.3005 51.4132 48.3005C51.0525 47.1786 50.712 46.1169 50.3113 44.8748C50.8322 45.4758 51.3931 45.2554 51.914 45.3155C52.1344 45.3356 52.3347 45.3756 52.535 45.4157L52.515 45.3957C52.515 45.576 52.495 45.7362 52.4749 45.9566C51.954 45.9566 51.4532 45.9566 50.9524 45.9566C51.0926 46.818 51.0926 46.818 51.8739 46.818C52.0342 46.818 52.1945 46.8381 52.3547 46.818C52.7955 46.7579 52.9958 46.9382 52.9357 47.4791C52.3948 47.4791 51.8539 47.4791 51.2729 47.4791C51.353 47.8197 51.4131 48.0601 51.4732 48.3205C51.954 48.3205 52.3948 48.3406 52.8556 48.3205C53.3163 48.2805 53.4165 48.5008 53.3764 48.8815C52.515 48.8815 51.6736 48.8815 50.8121 48.8815Z" fill="white"/>
<path d="M35.687 45.1753C36.2078 44.8147 36.3681 44.8347 36.7487 45.3756C37.0893 45.0952 37.4098 44.8147 37.7704 44.5543C37.7905 44.5342 37.8706 44.6344 37.9708 44.6945C37.8305 44.8147 37.7103 44.8948 37.5901 44.995C37.6502 45.3756 37.6502 45.3756 38.3314 46.217C37.6903 45.8965 37.3497 46.4775 36.8489 46.5977C36.5885 46.6578 36.288 46.5977 36.0075 46.5977C35.8272 46.5977 35.6269 46.6377 35.4666 46.5977C35.3063 46.5576 35.1661 46.4174 35.0058 46.3372C35.106 46.197 35.2062 46.0768 35.3464 45.8765C35.2062 44.8748 35.4666 44.2938 36.4282 44.0935C36.1678 44.414 35.8873 44.7346 35.6068 45.0751C35.5868 45.1152 35.6469 45.1553 35.687 45.1753Z" fill="white"/>
<path d="M3.53333 52.9883C4.2345 53.7897 3.97407 54.8514 4.1744 55.773C3.333 55.9533 3.01247 55.7329 3.0325 54.9716C3.05253 54.3105 3.1527 53.6695 3.2128 53.0284C3.31297 53.0084 3.41313 52.9883 3.53333 52.9883Z" fill="white"/>
<path d="M31.8004 46.3973C32.0809 46.4174 32.3814 46.4975 32.6619 46.4574C33.363 46.3573 33.8639 45.9366 34.0642 45.2554C34.2645 44.5743 34.1243 43.9132 33.5634 43.4324C33.0225 42.9516 32.4215 42.8715 31.7604 43.172C31.7203 43.192 31.6602 43.192 31.4599 43.2521C32.0208 42.7913 32.5216 42.6711 33.0826 42.7312C33.2829 42.7513 33.4832 42.7913 33.6635 42.8314C33.9841 43.172 34.3246 43.5125 34.6452 43.8531C34.6852 43.9733 34.7053 44.0935 34.7654 44.2938C34.525 44.1135 34.3647 44.0134 34.0842 43.813C34.4649 44.8748 34.3647 45.7362 33.4632 46.3172C32.9423 46.6778 32.3614 46.778 31.8004 46.3973Z" fill="black"/>
<path d="M1.89062 48.2805C2.43153 46.6377 3.47326 45.616 4.79547 44.8147C4.71533 44.9149 4.61517 45.0351 4.53503 45.1352C3.9741 45.9366 3.41316 46.7579 2.81216 47.5392C2.61183 47.8197 2.29129 47.98 1.89062 48.2805Z" fill="white"/>
<path d="M15.8539 28.6878C15.1327 28.4274 14.4916 28.6678 13.9707 29.0685C12.7086 30.0701 11.4866 31.1519 10.2445 32.1937C10.0642 32.3339 9.90394 32.4741 9.72364 32.6344C9.68357 32.5943 9.64351 32.5743 9.62347 32.5342C9.80377 32.3539 9.94401 32.1336 10.1443 31.9733C11.3463 30.9516 12.5283 29.9299 13.7504 28.9483C14.0709 28.6878 14.5116 28.5075 14.9123 28.4074C15.1928 28.3272 15.5333 28.4274 15.8539 28.4474C15.8539 28.5476 15.8539 28.6277 15.8539 28.6878Z" fill="white"/>
<path d="M3.61349 58.3172C3.03252 57.596 2.99245 56.5342 3.53335 56.0534C3.59345 56.2938 3.65355 56.4942 3.71365 56.7546C3.85389 56.6745 3.97409 56.6144 4.07425 56.5543C4.25455 56.8548 3.95405 58.0167 3.61349 58.3172Z" fill="white"/>
<path d="M29.7971 46.5977C29.0759 46.1569 28.7153 45.616 28.7153 44.9149C28.7353 44.2938 29.116 43.8331 29.8572 43.5326C29.0959 44.5743 29.1961 45.5359 29.7971 46.5977Z" fill="white"/>
<path d="M46.7855 45.9366C46.7654 45.9165 46.7454 45.8965 46.7254 45.8765C46.7053 45.7162 46.6853 45.576 46.6853 45.4157C47.8272 45.1753 48.1678 45.2755 48.3881 45.9366C47.8272 45.9366 47.3063 45.9366 46.7855 45.9366Z" fill="white"/>
<path d="M4.31465 61.5225C3.69362 60.8013 3.65355 59.9599 3.55338 59.1386C3.67358 59.5192 3.77375 59.8998 3.93402 60.2404C4.01415 60.4007 4.17442 60.5209 4.31465 60.6811C4.45489 60.5209 4.59512 60.3806 4.71532 60.2204C4.77542 60.1202 4.81549 60 4.89562 59.8998C4.83552 60.4608 4.83552 61.0417 4.31465 61.5225Z" fill="white"/>
<path d="M72.6085 45.4157C72.6085 45.3356 72.6085 45.2354 72.6085 45.2154C73.0692 45.2755 73.51 45.3155 73.9507 45.3756C73.9707 45.8965 73.9707 45.8965 73.0692 45.9967C73.0492 46.1569 73.0492 46.3372 73.0292 46.5175L73.0492 46.4975C72.8889 46.1369 72.7487 45.7763 72.6085 45.4157Z" fill="white"/>
<path d="M6.09763 39.2855C6.33803 38.6444 6.39813 37.9232 6.85889 37.3623C6.91899 37.3823 6.97909 37.4023 7.03919 37.4224C6.79879 38.0835 6.57843 38.7245 6.33803 39.3856C6.25789 39.3456 6.17776 39.3055 6.09763 39.2855Z" fill="white"/>
<path d="M27.0325 42.2705C27.0325 42.8915 27.0325 43.3523 27.0325 43.773C26.8122 43.7129 26.3915 43.2521 26.4716 42.9716C26.5517 42.7112 26.8122 42.5309 27.0325 42.2705Z" fill="white"/>
<path d="M30.1377 44.7947C30.1577 45.2554 30.1778 45.7763 30.1978 46.217C29.6168 45.6561 29.5968 45.015 30.1377 44.7947Z" fill="white"/>
<path d="M17.3964 63.4057C18.338 63.6461 18.338 63.6461 18.8589 62.4641C18.7787 63.606 18.2378 64.0668 17.4966 63.626C17.4565 63.5459 17.4165 63.4858 17.3964 63.4057Z" fill="black"/>
<path d="M23.5868 41.1486C24.1477 41.8698 24.7086 42.591 25.2495 43.3122C25.2095 43.3523 25.1694 43.3723 25.1293 43.4124C24.5684 42.6912 24.0275 41.97 23.4666 41.2488C23.5267 41.2087 23.5667 41.1887 23.5868 41.1486Z" fill="white"/>
<path d="M68.4415 50.1636C68.3213 50.0434 68.2212 49.8831 68.0809 49.8431C67.8405 49.783 67.5801 49.823 67.2996 49.823C67.2395 49.5426 67.1995 49.2821 67.1394 48.9616C67.5 48.9416 67.8005 48.9215 68.141 48.9015C68.1611 47.98 67.4399 48.4608 67.0192 48.2404C66.9791 48.02 66.919 47.7596 66.8589 47.4791C67.1794 47.4591 67.4399 47.4391 67.7404 47.399C67.8205 46.5376 67.1394 46.9182 66.7187 46.7579C66.6586 46.5175 66.5985 46.2571 66.5183 45.9366C66.8789 45.9366 67.1794 45.9366 67.5601 45.9366C67.8806 47.2988 68.3614 48.6811 68.4415 50.1636Z" fill="black"/>
<path d="M64.8155 45.7362C65.2762 47.6394 65.717 49.4825 66.1577 51.3456C65.7771 51.3256 65.4766 51.3055 65.136 51.3055C65.116 51.025 65.0959 50.7646 65.0559 50.4641C65.3363 50.4441 65.5367 50.4441 65.737 50.424C65.8372 49.803 65.4165 49.823 65.0158 49.8431C64.9757 49.5426 64.9557 49.3022 64.9156 49.0217C65.0759 48.9816 65.2362 48.9416 65.4565 48.8815C65.3363 48.6811 65.2762 48.4007 65.156 48.3606C64.6151 48.2003 64.7153 47.7396 64.8555 47.5192C65.0559 47.1786 64.9156 47.0584 64.7353 46.818C64.535 46.5175 64.3347 46.1369 64.8155 45.7362Z" fill="black"/>
<path d="M70.8656 48.3205C69.6035 48.3606 69.6035 48.3606 69.4833 47.4992C69.8238 47.4791 70.1444 47.4591 70.505 47.4391C70.4649 47.1185 70.4849 46.7579 70.0242 46.8581C69.3631 46.9783 69.1627 46.6377 69.1627 46.0167C69.4833 45.9766 69.8238 45.9366 70.2245 45.8965C70.3046 46.197 70.4449 46.6177 70.545 47.0584C70.6853 47.4391 70.7654 47.8598 70.8656 48.3205Z" fill="black"/>
<path d="M69.5033 48.4007C69.1227 48.3606 68.7621 48.3406 68.3213 48.3005C68.2612 48.0601 68.2212 47.8197 68.141 47.4791C68.4616 47.4591 68.7621 47.4591 69.0626 47.4391C69.1026 47.399 69.1427 47.3589 69.1828 47.2988C69.0225 47.1386 68.8422 46.8381 68.6819 46.8581C68.0008 46.9382 67.8405 46.5776 67.8405 45.9967C68.141 45.9766 68.4616 45.9366 68.8622 45.9165C69.0826 46.7179 69.2829 47.5593 69.5033 48.4007Z" fill="black"/>
<path d="M66.7387 48.3606C66.3981 48.3606 66.0575 48.3606 65.6969 48.3606C65.6368 48.0601 65.5767 47.7997 65.5166 47.4992C65.8372 47.4791 66.1176 47.4591 66.3781 47.4391C66.4181 47.399 66.4382 47.3589 66.4782 47.3189C66.318 47.1586 66.1377 46.8581 65.9974 46.8781C65.3363 46.9583 65.1961 46.5776 65.1761 45.9967C65.4966 45.9766 65.8171 45.9566 66.2178 45.9366C66.3981 46.7379 66.5784 47.5392 66.7587 48.3406L66.7387 48.3606Z" fill="black"/>
<path d="M67.2596 50.1035C67.0593 50.0234 66.879 49.8631 66.6786 49.8431C65.9174 49.783 65.9174 49.803 65.7972 48.9816C66.0977 48.9616 66.4182 48.9416 66.7187 48.9215C66.7187 48.7212 66.7187 48.5409 66.7187 48.3606L66.7387 48.3406C66.919 48.9215 67.0993 49.5225 67.2596 50.1035Z" fill="black"/>
<path d="M69.7837 49.5626C69.7637 49.6427 69.7837 49.783 69.7236 49.803C69.0826 50.1436 68.4816 49.7429 68.4816 48.9816C68.6418 48.9816 68.7821 48.9616 68.9423 48.9616C69.1026 48.9616 69.2629 48.9616 69.4432 48.9616C69.4632 48.7613 69.4832 48.581 69.5033 48.4207C69.6034 48.8013 69.7036 49.182 69.7837 49.5626Z" fill="black"/>
<path d="M67.2596 50.1035C67.3197 50.3639 67.3597 50.6244 67.4198 50.9048L67.3998 50.8848C67.3998 51.005 67.3998 51.1252 67.3998 51.2855C66.9991 51.2855 66.6185 51.2855 66.1978 51.2855C66.1577 51.0251 66.0976 50.7646 66.0575 50.5242C66.4582 50.2638 67.0592 50.7245 67.2596 50.1035Z" fill="black"/>
<path d="M71.3263 45.9366C71.3263 45.7963 71.3263 45.6761 71.3263 45.5559C71.3463 45.5559 71.3664 45.5559 71.4064 45.5359C71.5467 46.0367 71.6869 46.5576 71.8472 47.0584C71.6869 46.9783 71.5266 46.818 71.4064 46.8381C70.7253 46.9583 70.565 46.5977 70.565 45.9766C70.7854 45.9766 71.0258 45.9566 71.3263 45.9366Z" fill="black"/>
<path d="M72.5884 45.3957C72.7287 45.7563 72.8889 46.1169 73.0292 46.4975C73.0893 46.818 72.8889 46.8781 72.6485 46.818C72.3681 46.7579 71.9674 47.0584 71.8472 46.5576C71.8071 46.3773 71.7871 46.197 71.747 45.9766C72.0676 45.9566 72.348 45.9566 72.6886 45.9366C72.6485 45.7362 72.6285 45.576 72.5884 45.3957Z" fill="black"/>
<path d="M57.8639 51.7062C56.6018 51.2654 55.3196 50.8247 54.0575 50.404C54.5984 50.404 55.1594 50.4441 55.7003 50.424C55.8004 50.424 55.9006 50.2638 56.0208 50.1836L56.0008 50.2037C56.0408 50.3239 56.1009 50.4441 56.1009 50.4841C56.762 50.4841 57.3831 50.4841 58.0041 50.4841C58.0642 49.9833 57.924 49.803 57.5033 49.823C57.0625 49.8431 56.6018 49.823 56.121 49.823C56.0609 49.5426 56.0008 49.2821 55.9206 48.9416C56.5216 48.9416 57.0826 48.9416 57.6435 48.9416C57.7036 48.4608 57.5433 48.2604 57.1226 48.3005C56.9223 48.3205 56.722 48.3005 56.5216 48.3005C55.7403 48.3005 55.7403 48.3005 55.6602 47.4391C56.1811 47.4391 56.7019 47.4391 57.2228 47.4391C57.2629 46.9783 57.1226 46.7379 56.6619 46.798C56.5016 46.818 56.3413 46.798 56.1811 46.798C55.3797 46.798 55.3797 46.798 55.2595 45.8765C55.8205 45.8765 56.3814 45.8765 57.0625 45.8765C57.4832 47.5593 57.944 49.3823 58.4248 51.2655C57.924 51.2655 57.5033 51.2655 57.0625 51.2655C57.0625 51.3055 57.0625 51.3256 57.0425 51.3656C57.323 51.5059 57.5834 51.606 57.8639 51.7062Z" fill="black"/>
<path d="M57.7237 47.4391C58.3247 47.4391 58.8455 47.4391 59.4666 47.4391C59.086 46.3172 58.1644 47.1185 57.5434 46.6778C57.5033 46.5576 57.4432 46.2771 57.343 45.9165C57.9841 45.9165 58.545 45.9165 59.2262 45.9165C59.6268 47.6194 60.0676 49.4424 60.5083 51.3255C59.8672 51.3255 59.3263 51.3656 58.7854 51.3255C58.2245 51.2855 58.4449 50.8247 58.3647 50.4641C58.9658 50.4641 59.5066 50.4641 60.0876 50.4641C60.1677 50.0634 60.0876 49.8431 59.6669 49.8631C59.4065 49.8831 59.1661 49.8631 58.9056 49.8631C58.1243 49.8631 58.1243 49.8631 58.0843 48.9816C58.6452 48.9816 59.1861 48.9816 59.7671 48.9816C59.8272 48.4808 59.6469 48.3205 59.2061 48.3406C58.7854 48.3606 58.3848 48.3406 57.924 48.3406C57.8639 48.0601 57.8038 47.7997 57.7237 47.4391Z" fill="black"/>
<path d="M53.737 49.3422C53.6969 49.0417 53.8171 48.9215 54.1377 48.9416C54.5984 48.9616 55.0792 48.9416 55.56 48.9416C55.6001 48.5209 55.4999 48.2805 55.0392 48.3205C54.7988 48.3406 54.5784 48.3205 54.338 48.3205C53.5567 48.3205 53.5567 48.3205 53.4766 47.4591C54.0175 47.4591 54.5584 47.4591 55.1193 47.4591C55.1594 46.9983 55.0191 46.778 54.5584 46.818C54.3781 46.8381 54.1978 46.818 54.0175 46.818C53.2362 46.818 53.2362 46.818 53.156 45.9766C53.6769 45.7963 54.2979 46.1369 54.919 45.6761C55.2796 47.1586 55.6402 48.6611 56.0208 50.1836L56.0408 50.1636C55.9407 49.9232 55.8004 49.7629 55.4799 49.803C55.1994 49.8431 54.919 49.783 54.6185 49.803C54.1777 49.8431 53.8171 49.823 53.737 49.2821V49.3422Z" fill="black"/>
<path d="M50.8121 48.8815C51.6736 48.8815 52.535 48.8815 53.4165 48.8815C53.4766 48.5008 53.3564 48.2805 52.8956 48.3205C52.4549 48.3606 51.9941 48.3205 51.5133 48.3205C51.4532 48.0401 51.3931 47.8197 51.313 47.4791C51.8939 47.4791 52.4348 47.4791 52.9757 47.4791C53.0158 46.9583 52.8355 46.7579 52.3948 46.818C52.2345 46.8381 52.0742 46.818 51.914 46.818C51.1126 46.818 51.1126 46.818 50.9924 45.9566C51.4933 45.9566 51.9741 45.9566 52.515 45.9566C52.535 45.7362 52.535 45.5559 52.555 45.3957C52.9156 46.6177 53.2762 47.8197 53.6368 49.0417C53.6569 49.1419 53.717 49.2421 53.757 49.3222L53.737 49.3022C53.737 49.4624 53.737 49.6427 53.737 49.7229C53.4365 49.823 53.2161 49.9032 52.9958 49.9833C52.2545 49.6227 51.5333 49.2621 50.8121 48.8815Z" fill="black"/>
<path d="M62.1911 48.7212C61.9307 48.4808 61.6703 48.2604 61.2496 48.3205C60.889 48.3806 60.4883 48.3406 60.0676 48.3406C60.0075 48.0801 59.9474 47.8197 59.8673 47.4791C60.4482 47.4791 61.0092 47.4791 61.53 47.4791C61.5901 46.8381 61.2496 46.818 60.8289 46.8381C60.4682 46.8581 60.1076 46.8381 59.727 46.8381C59.6469 46.5376 59.5868 46.2972 59.5267 46.0167C60.1076 45.8164 60.7287 46.1569 61.3097 45.7763C61.6102 46.7379 61.8906 47.7195 62.1911 48.7212Z" fill="black"/>
<path d="M62.1911 48.7212C62.2311 49.0818 62.2712 49.4224 62.3113 49.8431C61.7103 49.8431 61.1293 49.9032 60.5884 49.803C60.3881 49.7629 60.2679 49.3222 60.0475 48.9416C60.7086 48.9416 61.1694 48.9616 61.6301 48.9215C61.8104 48.9215 61.9907 48.7813 62.1911 48.7212Z" fill="black"/>
<path d="M52.9758 50.0033C53.1961 49.9232 53.4165 49.8431 53.717 49.7429C53.717 49.6628 53.717 49.4825 53.717 49.3222C53.7971 49.8631 54.1577 49.8831 54.5985 49.8431C54.8789 49.823 55.1794 49.8631 55.4599 49.8431C55.7604 49.803 55.9207 49.9633 56.0208 50.2037C55.9207 50.2838 55.8205 50.4441 55.7003 50.4441C55.1594 50.4641 54.5985 50.4441 54.0576 50.424C53.697 50.2638 53.3364 50.1235 52.9758 50.0033Z" fill="white"/>
<path d="M32.9423 43.8531C33.1627 44.3339 33.7837 44.6344 33.4031 45.2955C33.0425 45.9366 32.4014 45.5559 31.9206 45.7963C32.7019 45.3556 33.0425 44.7346 32.9423 43.8531Z" fill="white"/>
<path d="M85.1494 54.5309C85.1093 54.7312 85.0292 54.9115 85.0092 55.1119C84.9491 55.6327 84.909 56.1536 84.8689 56.6745C84.6085 59.6795 83.3464 62.0835 80.702 63.6261C79.9808 64.0468 79.1995 64.4074 78.3981 64.7079C76.5751 65.389 74.6519 65.4491 72.7487 65.5893C72.1077 65.6294 71.4465 65.6695 70.8055 65.6895C71.727 65.1686 72.7087 64.8681 73.7504 64.8281C75.293 64.788 76.6953 64.3272 78.0175 63.566C78.2379 63.4458 78.4582 63.3256 78.6986 63.2254C80.2612 62.5843 81.6435 61.6027 82.4849 60.1803C83.4065 58.5977 84.0075 56.8147 84.7487 55.1319C84.6886 55.1119 84.6486 55.0718 84.5884 55.0518C84.4482 55.1319 84.328 55.212 84.1878 55.2922C83.0459 55.9332 81.924 56.6544 80.742 57.2154C75.8138 59.4591 70.545 60.3406 65.1961 60.8013C59.9474 61.2421 54.7187 60.8815 49.51 60.3406C43.5801 59.7195 37.7103 58.6578 31.9006 57.2354C30.3781 56.8548 29.0158 56.1536 27.6335 55.4124C28.5551 55.5726 29.4766 55.7329 30.3781 55.9733C37.6302 57.9967 44.9824 59.5192 52.495 60.1803C57.8238 60.6411 63.1327 60.8615 68.4616 60.2604C73.9708 59.6394 78.919 57.5359 83.5667 54.6511C83.9874 54.3907 84.348 54.1503 84.8889 54.3506C84.2078 54.1503 84.2879 53.6094 84.2279 53.1085C84.0876 51.9666 83.9474 50.8047 83.7871 49.6628C83.707 49.182 83.5467 48.7212 83.0258 48.4808C82.9056 48.4207 82.8656 48.2003 82.8055 48.0401C82.6452 47.6795 82.5851 47.2387 82.3247 46.9783C82.0442 46.6978 81.9641 46.4174 81.8839 46.0568C81.6836 45.2354 81.5033 44.394 81.1227 43.6528C80.5818 42.6311 79.0793 42.1703 78.1377 42.611C78.2579 42.6511 78.3581 42.7112 78.4582 42.7112C80.3013 42.8915 81.1227 43.6127 81.5233 45.4357C81.6035 45.7763 81.6235 46.1169 81.7237 46.4374C81.9641 47.1185 81.8439 47.6795 81.2228 48.02C80.742 48.2805 80.2011 48.4808 79.6602 48.601C78.1377 48.9215 76.6552 49.4023 75.2729 50.1236C75.0526 50.2438 74.8122 50.364 74.6519 50.5443C72.6486 52.808 69.8639 52.9483 67.1794 53.369C68.2612 52.8882 69.4031 52.5075 70.4649 51.9666C71.4866 51.4458 72.5484 50.9049 73.3898 50.1636C75.4532 48.3806 76.1143 46.0167 75.7337 43.3523C75.6536 42.7312 75.5133 42.1102 75.4132 41.5893C76.0743 41.6695 76.7354 41.7496 77.3965 41.8297C77.096 41.6294 76.7554 41.389 76.3948 41.3289C75.6936 41.1887 75.1928 40.808 74.8122 40.2671C74.0709 39.1653 72.9691 38.6244 71.727 38.4241C69.904 38.1236 68.0809 37.8832 66.2579 37.7229C65.3163 37.6428 64.5751 37.4625 63.8339 36.7413C62.3113 35.2588 60.308 34.778 58.2445 34.4975C57.9841 34.4574 57.6836 34.3372 57.4632 34.197C56.3414 33.4157 55.2395 32.5743 54.1177 31.793C51.0125 29.6494 47.707 27.9867 43.9207 27.3456C35.6469 25.9633 27.3531 25.7429 19.0192 26.6044C15.8339 26.9249 13.0292 28.0668 10.8255 30.4708C10.5851 30.7312 10.2846 30.9516 10.0442 31.2321C8.86224 32.6544 7.54004 33.9566 6.05757 35.0985C5.69697 35.379 5.39647 35.7596 5.13603 36.1402C4.79546 36.6411 4.9357 36.9817 5.51667 37.1419C5.75707 37.202 5.99747 37.2421 6.23787 37.3022C6.05757 37.9232 5.87727 38.5443 5.69697 39.1453C5.69697 39.1453 5.4766 39.8865 4.7554 40.6077C3.99413 41.369 2.21116 43.1519 2.63186 45.0952C2.61182 45.4558 2.59179 45.7963 2.57176 46.1569C2.57176 46.217 2.57176 46.2972 2.55172 46.3773C2.39146 46.6377 2.11099 47.1185 1.87059 47.6594C1.00915 49.4224 1.26959 51.2454 2.39146 52.8481C2.49163 53.0084 2.51166 53.2488 2.53169 53.4491C2.61182 55.192 2.61183 56.9549 2.81216 58.6778C2.95239 59.8197 3.39313 60.9416 3.77376 62.0434C4.01416 62.7446 4.55506 63.1653 5.3564 63.1252C6.2579 63.0651 7.1594 63.0251 8.04087 62.9249C9.08261 62.8247 9.86391 62.2838 10.3647 61.3623C10.4449 61.222 10.6452 61.182 10.8055 61.1019C9.28294 60.3606 7.68027 59.8998 5.91733 60.0601C6.03753 59.5392 6.3781 59.3589 6.7988 59.3589C9.52334 59.419 12.7487 60.3806 14.4716 63.1853C13.6102 62.6845 12.7487 62.1636 11.8673 61.6427C12.929 62.4841 13.9908 63.3055 15.0125 64.167C15.1928 64.3072 15.293 64.5676 15.3531 64.808C15.7537 66.2304 16.0743 67.6928 16.5551 69.0751C16.8756 69.9766 17.3764 70.8381 17.8773 71.6594C18.1778 72.1603 18.6185 72.5209 19.2596 72.6211C20.8021 72.8214 22.3247 72.8214 23.8472 72.581C24.6486 72.4608 25.4699 72.3406 26.2312 72.1202C27.8739 71.6394 28.8355 70.4174 29.4165 68.8948C29.6369 68.3139 29.8172 67.7129 30.0175 67.0918C32.6819 67.6728 35.3464 67.5726 38.0108 67.4124C40.9758 67.2321 43.9207 66.9917 46.8856 66.8514C50.8522 66.6511 54.8389 66.5109 58.8055 66.3506C61.0893 66.2504 63.3531 66.1903 65.6369 66.1102C65.8172 66.1102 66.1377 66.2104 66.1978 66.3506C66.8389 68.0735 68.1811 68.6745 69.8639 68.8147C72.1077 68.995 74.3314 68.7546 76.5551 68.4341C79.0793 68.0534 80.6819 66.611 81.4031 64.2271C81.6435 63.4458 82.0242 62.8247 82.6051 62.2838C83.727 61.202 84.5885 60 84.8489 58.4174C84.9491 57.7963 85.0893 57.1753 85.1694 56.5543C85.2496 55.8932 85.2896 55.212 85.3297 54.5509C85.2696 54.5509 85.2095 54.5309 85.1494 54.5309ZM27.293 45.6962C28.0743 46.6578 29.136 46.778 30.2379 46.778C30.3581 46.778 30.4983 46.798 30.5985 46.8581C31.3998 47.3589 32.2612 47.2588 33.1227 47.1185C33.323 47.0785 33.5434 47.1185 33.7437 47.1586C34.7253 47.3589 35.707 47.5793 36.7087 47.1987C36.5684 47.2187 36.4282 47.2187 36.288 47.2788C35.5868 47.4992 34.9858 47.2988 34.505 46.818C34.2445 46.5576 34.0442 46.5776 33.7437 46.7379C32.9424 47.1386 31.7804 47.0184 31.2395 46.4975C31.2195 46.4775 31.1995 46.4574 31.1794 46.4574C30.318 45.7563 30.1577 44.7746 30.7187 43.6327C30.6185 43.4524 30.5183 43.2721 30.3981 43.0918C30.318 43.172 30.1978 43.2721 30.0375 43.4124C29.8973 43.1319 29.7771 42.8715 29.6569 42.6311C29.5167 42.3907 29.3564 42.1503 29.1761 41.8297C32.0208 41.9499 34.7053 42.4708 37.1895 43.8331C36.1678 43.4725 35.146 43.0317 34.1043 42.7513C33.0425 42.4508 31.9407 42.2705 30.8389 42.0301C30.7988 42.0902 30.7387 42.1703 30.6986 42.2304C30.8789 42.4908 31.0392 42.7713 31.2195 43.0317C32.0409 42.591 32.8021 42.3706 33.6235 42.8915C33.944 43.2321 34.2846 43.5726 34.6051 43.9132C34.8255 43.9533 35.0659 43.9733 35.2863 43.9933C35.4265 44.0134 35.5868 43.9933 35.727 43.9933C35.727 44.0334 35.747 44.0735 35.747 44.1336C35.6068 44.1736 35.4466 44.1937 35.3264 44.2738C35.1461 44.414 34.9257 44.5743 34.8455 44.7746C34.7053 45.1553 34.6051 45.5559 34.545 45.9566C34.525 46.1569 34.545 46.4975 34.6452 46.5576C35.0659 46.798 35.5467 47.1386 35.9875 47.1185C36.8088 47.0584 37.5901 46.7579 38.3915 46.5175C38.5317 46.4775 38.6118 46.177 38.7921 46.0167C38.7721 46.2571 38.7521 46.4775 38.732 46.7379C39.4733 47.1586 40.1143 47.7596 41.136 47.7195C40.8355 46.8781 40.1344 46.4174 39.5334 45.8164C40.0943 46.0167 41.1761 47.1586 41.3564 47.6594C41.4566 47.9599 41.3564 48.1402 41.0559 48.1603C40.7554 48.1803 40.4349 48.1803 40.1344 48.1402C37.0893 47.6795 34.0242 47.4992 30.9591 47.6594C30.5183 47.6795 30.0576 47.6394 29.6168 47.5993C28.495 47.4391 27.894 46.5776 27.293 45.6962ZM29.7971 46.5977C29.0759 46.1569 28.7153 45.616 28.7153 44.9149C28.7354 44.2938 29.116 43.8331 29.8572 43.5326C29.096 44.5743 29.1961 45.5359 29.7971 46.5977ZM30.1377 44.7947C30.1577 45.2554 30.1778 45.7763 30.1978 46.217C29.6168 45.6561 29.5968 45.015 30.1377 44.7947ZM38.2913 46.217C37.6502 45.8965 37.3097 46.4775 36.8088 46.5977C36.5484 46.6578 36.2479 46.5977 35.9674 46.5977C35.7871 46.5977 35.5868 46.6377 35.4265 46.5977C35.2663 46.5576 35.126 46.4174 34.9657 46.3372C35.0659 46.197 35.1661 46.0768 35.3063 45.8765C35.1661 44.8748 35.4265 44.2938 36.3881 44.0935C36.1277 44.414 35.8472 44.7346 35.5667 45.0751C35.6068 45.1152 35.6469 45.1352 35.687 45.1753C36.2078 44.8147 36.3681 44.8347 36.7487 45.3756C37.0893 45.0952 37.4098 44.8147 37.7704 44.5543C37.7905 44.5342 37.8706 44.6344 37.9708 44.6945C37.8305 44.8147 37.7103 44.8948 37.5901 44.995C37.6302 45.3756 37.6302 45.3756 38.2913 46.217ZM50.732 53.6294C45.7437 53.1887 40.7754 52.6678 35.8672 51.7062C33.904 51.3256 31.0592 50.0434 29.4365 48.7212C30.0576 48.9816 30.6986 49.202 31.3197 49.4825C34.1243 50.7246 37.0893 51.4257 40.1143 51.8264C43.0192 52.187 45.924 52.4875 48.8289 52.788C50.1911 52.9282 51.5534 53.1085 52.8155 53.6494C52.1143 53.6494 51.4132 53.6895 50.732 53.6294ZM46.7253 45.8765C46.7053 45.7162 46.6853 45.576 46.6853 45.4157C47.8272 45.1753 48.1678 45.2755 48.3881 45.9366C47.8472 45.9366 47.3063 45.9366 46.7854 45.9366C47.0659 46.5175 47.4465 46.9382 48.1878 46.8381C48.4282 46.818 48.6886 46.9182 48.9691 46.9583C48.7287 46.3372 48.4683 45.6361 48.2078 44.9349C48.7688 45.6361 49.5701 45.2354 50.2713 45.3756C50.3314 45.5559 50.3714 45.7362 50.4516 45.9766C49.8906 45.9766 49.3898 45.9766 48.8489 45.9766C48.929 46.2972 48.9891 46.5376 49.0492 46.8381C49.49 46.8381 49.9107 46.8781 50.3113 46.8381C50.7921 46.798 50.9724 46.9783 50.9324 47.4791C50.111 47.4791 49.2896 47.4791 48.4883 47.4791C48.4683 47.5192 48.4482 47.5593 48.4482 47.5993C49.0292 47.9399 49.6102 48.2604 50.1911 48.601C50.2312 48.5209 50.2512 48.3606 50.2913 48.3606C50.6319 48.3406 50.9724 48.3406 51.4332 48.3406C51.0726 47.2187 50.732 46.1569 50.3314 44.9149C50.8522 45.5159 51.4132 45.2955 51.934 45.3556C52.1544 45.3756 52.3547 45.4157 52.5551 45.4558C52.5551 45.3356 52.535 45.2154 52.535 45.1753C52.9557 45.2354 53.3364 45.3356 53.737 45.3556C55.3197 45.3756 56.9023 45.3556 58.4849 45.3556C59.5868 45.3556 60.7087 45.3756 61.8105 45.3556C62.2512 45.3356 62.3714 45.576 62.4115 45.9566C62.1911 45.9766 61.9708 45.9967 61.7103 46.0167C61.7704 46.2972 61.8305 46.5376 61.8906 46.798C62.2713 46.9983 63.0125 46.5576 62.9925 47.4791C62.712 47.4791 62.4115 47.4791 62.0709 47.4791C62.131 47.7796 62.1711 48.0401 62.1911 48.2604C62.5918 48.601 63.4332 47.9399 63.4933 48.9616C63.1127 48.9816 62.732 49.0017 62.3714 49.0017C62.4115 49.8631 62.4115 49.8832 63.2529 49.8631C63.6536 49.8631 63.934 49.9032 63.8739 50.404C63.6335 50.4441 62.4315 50.4842 62.3314 50.4842C61.7103 50.4842 61.1093 50.4842 60.4282 50.4842C60.4683 50.7847 60.5284 51.0451 60.5684 51.3656C61.6102 51.3656 62.6519 51.3857 63.6936 51.3656C64.1344 51.3656 64.2946 51.5259 64.2145 52.0067C62.091 51.8665 59.9474 52.2271 57.8238 51.7463C59.0459 52.0067 60.288 52.2872 61.51 52.4875C62.3514 52.6277 63.1928 52.6478 64.0342 52.7479C64.1945 52.768 64.3547 52.8681 64.495 52.9282C64.4749 53.0084 64.4549 53.0885 64.4349 53.1686C63.5534 53.0885 62.6519 53.0284 61.7704 52.9282C57.2629 52.4875 53.1761 50.8047 49.2896 48.581C48.1277 47.9199 47.0659 47.1185 46.3447 45.9366C46.1844 45.6761 45.8639 45.5359 45.5033 45.2554C45.7637 45.0351 45.944 44.7346 46.2045 44.6344C46.6652 44.4741 47.1861 44.3339 47.6669 44.3339C52.4349 44.374 57.2028 44.4341 61.9708 44.4942C62.111 44.4942 62.2713 44.5142 62.4115 44.5342C62.4115 44.5943 62.4115 44.6344 62.4315 44.6945C62.2312 44.7145 62.0108 44.7546 61.8105 44.7546C57.6035 44.6945 53.3965 44.5943 49.1895 44.5543C48.4482 44.5543 47.6669 44.6344 46.9457 44.7947C46.1844 44.9149 46.1243 45.2755 46.7253 45.8765ZM71.9674 54.4107C72.7888 54.4107 73.2295 54.8314 73.2496 55.6928C73.2696 56.374 73.2696 57.0751 73.2696 57.7563C73.2696 58.6377 72.8489 59.0584 71.9474 59.0985C69.1227 59.2187 66.2779 59.3389 63.4532 59.4591C63.3531 59.4591 63.2329 59.4791 63.1327 59.4791C60.2679 59.5993 57.4031 59.7396 54.5183 59.8598C53.5968 59.8998 53.1761 59.4992 53.1561 58.5977C53.136 57.6962 53.116 56.7947 53.116 55.8932C53.116 55.0317 53.5567 54.591 54.4182 54.591C60.2679 54.4908 66.1177 54.4508 71.9674 54.4107ZM74.8723 44.7947C74.692 45.015 74.5918 45.1352 74.5718 45.1553C74.0309 44.975 73.5901 44.7145 73.1294 44.6745C72.1878 44.5943 71.2262 44.6344 70.2646 44.6344C68.4215 44.6544 66.5784 44.6745 64.7354 44.6945C64.535 44.6945 64.3547 44.6945 64.0943 44.6945C64.1945 45.1152 64.2145 45.2755 64.7754 45.2554C66.9791 45.1753 69.2028 45.2354 71.4065 45.2755C71.8072 45.2755 72.2279 45.3756 72.6285 45.4157C72.6285 45.3356 72.6285 45.2354 72.6285 45.2154C73.0893 45.2755 73.53 45.3155 73.9708 45.3756C73.9908 45.8965 73.9908 45.8965 73.0893 45.9967C73.0693 46.1569 73.0693 46.3372 73.0492 46.5175C73.1494 46.6578 73.2696 46.798 73.3898 46.9583C73.2696 47.3189 72.9691 47.5793 72.5484 47.4391C72.288 47.3389 72.1477 47.7195 71.8472 47.4791C71.6469 47.3189 71.2262 47.4591 70.8456 47.4591C70.9056 47.7796 70.9257 48.0401 70.9858 48.3406C71.3865 48.3406 71.7471 48.3406 72.1878 48.3406C71.5467 49.3623 70.5651 48.7412 69.7838 49.0217C69.7838 49.202 69.8038 49.3823 69.8038 49.5827C69.9841 49.7029 70.1644 49.8431 70.3647 49.9633C70.0042 50.5843 69.303 50.404 68.6819 50.4842C68.6218 50.4842 68.5217 50.2838 68.4616 50.1837C68.4215 50.4441 68.4215 50.4641 67.9407 50.4441C67.6001 50.4441 67.3197 50.4441 67.4399 50.9049C67.6202 51.1052 67.8005 51.2855 68.0609 51.566C67.6602 51.6862 67.1794 51.8665 66.6786 51.9466C66.1978 52.0067 65.717 51.9666 65.1561 51.9666C65.1761 52.2271 65.1961 52.4274 65.2162 52.7279C69.2429 51.5459 72.4082 49.4023 74.4916 45.7362C74.3714 46.0367 74.2913 46.3773 74.111 46.6578C73.6502 47.3389 73.2095 48.0801 72.6486 48.6611C70.7053 50.6845 68.4415 52.2471 65.6769 52.9483C65.4365 53.0084 65.2362 53.2287 64.9357 53.409C64.8956 53.2087 64.8355 52.9883 64.8155 52.768C64.495 49.9433 63.914 47.1786 62.712 44.5543C62.5117 44.1336 62.6319 43.9933 63.0726 44.0134C63.2128 44.0134 63.3931 44.0334 63.4933 44.1135C63.9541 44.5543 64.515 44.4741 65.0759 44.4541C67.54 44.414 69.9841 44.3539 72.4482 44.3139C72.9891 44.3139 73.53 44.3539 74.0709 44.4341C74.3113 44.4541 74.5517 44.6344 74.8723 44.7947ZM47.3464 30.2104C47.5467 30.1903 47.7871 30.1903 47.9874 30.2705C51.6335 31.7529 54.8789 33.8164 57.4833 36.8013C57.5233 36.8614 57.5634 36.9215 57.6636 37.0618C57.4232 37.0618 57.2429 37.0818 57.0626 37.0618C53.737 36.8214 50.3915 36.581 47.0659 36.3205C46.9257 36.3005 46.7454 36.2404 46.6452 36.1402C45.9841 35.419 45.3631 34.6778 44.6819 33.9967C44.0008 33.3155 43.2395 32.6945 42.4783 32.0134C44.0008 31.0918 45.5834 30.3907 47.3464 30.2104ZM44.4215 36.1603C43.9006 36.1603 43.4198 36.1603 42.939 36.1603C42.8589 35.8798 42.7788 35.5993 42.6986 35.3189L44.4215 36.1603ZM43.3397 36.3606C48.4883 36.5409 53.6168 37.0618 58.7454 37.4424C60.328 37.5626 61.9107 37.6428 63.5133 37.7429C63.5935 37.7429 63.6736 37.7229 63.8539 37.7028C62.4716 36.8214 61.1494 36.1402 59.5668 36.2604C59.4065 36.2805 59.2262 36.1803 59.106 36.0601C58.7053 35.6995 58.3447 35.2988 57.9841 34.778C58.8055 34.9583 59.6469 35.0785 60.4683 35.3189C61.8506 35.7195 63.0325 36.4407 63.9541 37.5827C64.0542 37.7029 64.2746 37.763 64.4549 37.783C66.5985 38.0234 68.7621 38.1837 70.9056 38.4842C71.6669 38.5843 72.4482 38.8848 73.1494 39.2254C73.6102 39.4458 73.9708 39.9065 74.3314 40.3072C74.4315 40.4074 74.4315 40.6478 74.3915 40.808C74.1911 41.6895 73.51 42.0301 72.7287 42.1302C71.4065 42.3306 70.0843 42.4708 68.742 42.571C65.3764 42.8715 62.0108 42.6912 58.6652 42.4307C54.7788 42.1302 50.8923 41.6895 47.0259 41.2688C44.8422 41.0284 42.7587 40.3473 40.7955 39.3456C38.111 37.9633 35.2262 37.2821 32.2412 36.9616C30.4783 36.7813 28.7153 36.6811 26.9524 36.4407C27.7137 36.4407 28.4749 36.4407 29.2362 36.4407C33.944 36.4007 38.6519 36.2003 43.3397 36.3606ZM36.3681 27.586C36.1678 28.6277 35.0459 28.5476 34.6252 29.3289C35.0659 29.3289 35.4466 29.3089 35.8272 29.3289C36.3881 29.3489 37.1093 30.2705 36.929 30.7913C36.889 30.9516 36.5885 31.1119 36.4082 31.1119C34.7854 31.1119 33.1627 31.0718 31.54 31.0117C31.1594 30.9917 30.7387 30.9516 30.7387 30.4307C30.7387 29.8498 31.2195 29.2287 31.6803 29.2087C32.2612 29.1887 32.8622 29.2087 33.4232 29.2087C33.2629 28.4274 32.6419 28.3673 32.0208 28.207C31.4198 28.0668 30.8389 27.8264 30.298 27.566C32.3013 27.586 34.3247 27.586 36.3681 27.586ZM18.4182 32.1135C23.9674 31.9332 29.5167 32.1937 35.0459 32.7947C35.5066 32.8548 35.9874 32.8548 36.4482 32.9549C36.929 33.0551 37.0092 33.2955 36.7688 33.7362C36.4081 34.4174 35.7671 34.9783 35.8072 35.8598C35.8072 35.9199 35.5066 36.0601 35.3464 36.0801C34.0843 36.1002 32.8222 36.1002 31.5601 36.1002C28.8756 36.1402 26.1711 36.1803 23.4866 36.2404C23.3664 36.2404 23.2462 36.2404 23.086 36.2404C23.086 35.7997 23.086 35.4591 23.086 35.0985C23.0459 34.0167 22.3647 33.3155 21.2829 33.2955C20.2612 33.2755 19.2195 33.2755 18.1978 33.2755C17.9975 33.2755 17.8172 33.2755 17.6369 33.2755C17.4566 32.2738 17.5567 32.1336 18.4182 32.1135ZM15.9941 35.4992C15.9941 35.8197 15.934 36.1402 16.1143 36.4407C16.0342 36.4207 15.934 36.4207 15.8539 36.4007C15.6536 36.3806 15.5935 36.3406 15.4532 36.3205C15.4532 36.1803 15.4132 36.02 15.313 35.8397C15.0325 35.3589 14.8923 34.778 14.692 34.2371C14.4716 33.6962 14.2512 33.1753 14.0108 32.5743C14.5517 32.5142 15.2329 32.4541 15.9941 32.374C15.9741 33.4758 15.9741 34.4975 15.9941 35.4992ZM10.1444 31.9933C11.3464 30.9716 12.5284 29.9499 13.7504 28.9683C14.0709 28.7079 14.5117 28.5276 14.9123 28.4274C15.1928 28.3473 15.5334 28.4474 15.8539 28.4675C15.8539 28.5476 15.8539 28.6077 15.8339 28.6878C15.1127 28.4274 14.4716 28.6678 13.9507 29.0685C12.6886 30.0701 11.4666 31.1519 10.2245 32.1937C10.0442 32.3339 9.88395 32.4741 9.70365 32.6344C9.66358 32.5943 9.62351 32.5743 9.60348 32.5342C9.80381 32.3539 9.96408 32.1536 10.1444 31.9933ZM6.29797 35.1386C7.43987 34.1569 8.66191 33.2955 10.0843 32.7746C11.146 32.394 12.1878 32.4942 13.2295 32.8147C13.8906 33.0351 14.2913 33.4958 14.4916 34.177C14.6719 34.8581 14.9524 35.4992 15.1527 36.1603C15.1928 36.2604 15.1127 36.4007 15.0926 36.5209C14.9324 36.4808 14.6719 36.4808 14.6519 36.4007C14.4516 35.8197 14.2913 35.2387 14.1711 34.6578C14.091 34.2771 14.0709 33.8765 13.6703 33.6361C13.5501 34.5175 13.4098 34.6177 12.5284 34.6978C10.3848 34.8781 8.26124 35.0785 6.1978 35.2788C6.15774 35.2988 6.21784 35.1987 6.29797 35.1386ZM6.8589 37.3423C6.919 37.3623 6.9791 37.3823 7.0392 37.4023C6.7988 38.0635 6.57844 38.7045 6.33804 39.3656C6.2579 39.3256 6.17777 39.3055 6.09764 39.2655C6.33804 38.6244 6.39814 37.9032 6.8589 37.3423ZM1.89062 48.2805C2.43153 46.6377 3.47326 45.616 4.79546 44.8147C4.71533 44.9149 4.61516 45.0351 4.53503 45.1352C3.9741 45.9366 3.41316 46.7579 2.81216 47.5392C2.61183 47.8197 2.29129 47.98 1.89062 48.2805ZM3.03253 54.9716C3.05256 54.3105 3.15273 53.6695 3.21283 53.0284C3.31299 53.0084 3.41316 53.0084 3.51333 52.9883C4.2145 53.7897 3.95406 54.8514 4.1544 55.773C3.33303 55.9533 3.01249 55.7329 3.03253 54.9716ZM3.55339 56.0534C3.61349 56.2938 3.67359 56.4942 3.7337 56.7546C3.87393 56.6745 3.99413 56.6144 4.0943 56.5543C4.25456 56.8548 3.95406 57.9967 3.61349 58.2972C3.05256 57.596 2.99246 56.5342 3.55339 56.0534ZM4.31466 61.5225C3.69363 60.8013 3.65356 59.9599 3.55339 59.1386C3.67359 59.5192 3.77376 59.8998 3.93403 60.2404C4.01416 60.4007 4.17443 60.5209 4.31466 60.6811C4.4549 60.5209 4.59513 60.3806 4.71533 60.2204C4.77543 60.1202 4.8155 60 4.89563 59.8998C4.83553 60.4608 4.83553 61.0417 4.31466 61.5225ZM20.742 65.97C20.6018 66.4708 20.4015 66.9716 20.1611 67.4124C19.5801 68.4741 18.7587 68.5142 18.0576 67.5326C17.697 67.0317 17.4165 66.4508 17.1761 65.8498C16.4148 63.8865 16.0943 61.8431 15.914 59.7796C15.6736 57.015 15.6536 54.2504 16.3147 51.5259C16.495 50.7847 16.8155 50.0434 17.1961 49.4023C17.6168 48.6811 18.2779 48.6812 18.8589 49.2822C19.5601 50.0034 19.8005 50.9049 19.9006 51.9065C19.8205 51.7463 19.7404 51.586 19.6602 51.4458C19.5801 51.2855 19.4799 51.1252 19.3798 50.985C18.6786 49.9433 17.9173 49.9833 17.3564 51.1052C16.7754 52.2872 16.6352 53.5893 16.5551 54.9115C16.6753 54.6711 16.7754 54.4107 16.9157 54.1903C17.2362 53.7095 17.5768 53.6895 17.9374 54.1503C18.1177 54.3706 18.2379 54.6311 18.3981 54.8915C18.2379 54.0301 17.8572 53.5893 17.2162 53.5493C17.2162 53.5092 17.2362 53.4491 17.2362 53.409C17.4566 53.4291 17.697 53.409 17.8773 53.5092C18.0576 53.6094 18.1978 53.8097 18.298 53.99C19.2395 55.8331 19.3597 57.8164 19.4198 59.9199C18.318 59.5593 17.0559 59.8998 16.2546 58.778C16.3748 59.6594 16.515 60.5209 16.6352 61.4024C16.7153 61.4024 16.7754 61.4224 16.8556 61.4224C16.9357 61.0217 16.9958 60.621 17.096 60.1402C17.1561 60.3005 17.1961 60.4007 17.2362 60.5409C17.3364 60.4007 17.4365 60.3005 17.5367 60.1803C17.5968 60.2204 17.6769 60.2604 17.6769 60.3005C17.7771 60.7412 17.8372 61.182 17.9574 61.6227C18.0175 61.823 18.1778 62.0034 18.2779 62.1837C18.4382 62.0635 18.6385 61.9633 18.7587 61.803C18.9591 61.5426 19.0993 61.222 19.2596 60.9215C19.4198 61.6628 19.0592 63.3456 18.6385 63.9266C18.2379 64.4474 17.8172 64.3673 17.4766 63.6862C17.4365 63.606 17.4165 63.5459 17.3764 63.4658C17.3364 63.566 17.2362 63.6862 17.2763 63.7663C17.6168 64.6077 17.8973 65.5092 18.3781 66.2905C18.939 67.2321 19.7203 67.1519 20.2212 66.1703C20.9023 64.8882 21.0826 63.4858 21.1427 62.0835C21.2028 60.7412 21.1627 59.399 21.2429 58.0367C21.2629 58.2972 21.303 58.5576 21.323 58.818C21.4632 61.182 21.3831 63.606 20.742 65.97ZM21.0626 45.8564C20.141 46.8781 19.4399 46.8982 18.4382 45.9766C18.1778 45.7563 17.9374 45.5159 17.6769 45.2755C17.3965 45.0351 17.116 44.8748 16.7354 45.1152C16.6552 45.1553 16.515 45.1753 16.4349 45.1553C15.4933 44.8548 14.7921 45.4558 14.5918 46.217C14.3113 47.3189 14.0108 48.4407 13.9507 49.5626C13.8506 51.2855 13.9107 53.0284 13.9107 54.7513C13.9107 54.9716 13.9107 55.172 13.8706 55.3923C13.3698 53.4892 13.2696 51.5459 13.3497 49.5426C11.3263 49.1018 9.58344 47.8998 7.37977 47.5392C7.60014 48.7813 7.80047 49.9433 8.02084 51.0852C8.24121 52.1269 8.52167 53.1486 8.74204 54.1903C8.82218 54.5509 8.86224 54.9516 8.78211 55.3122C8.70197 55.6728 8.78211 55.8531 9.08261 56.0735C10.6252 57.1953 12.288 58.0167 14.1711 58.4174C12.0476 59.0584 10.1043 58.2571 8.02084 57.5559C8.66191 58.2972 9.24288 58.9783 9.80381 59.6394C9.76375 59.6795 9.72368 59.7195 9.66358 59.7596C9.56341 59.6594 9.44321 59.5793 9.36308 59.4591C8.80214 58.778 8.24121 58.0968 7.68027 57.4157C7.60014 57.3155 7.43987 57.2755 7.31967 57.1953C6.65857 56.8347 5.99747 56.4741 5.4165 56.1736C5.75707 55.6928 6.0776 55.2721 6.3781 54.8514C6.65857 54.4107 6.93904 54.3506 7.35974 54.6511C7.54004 54.7913 7.72034 54.9516 7.90064 55.0918C8.06091 55.2321 8.24121 55.3523 8.52167 55.5927C8.52167 55.0518 8.60181 54.611 8.50164 54.2104C8.14104 52.4274 7.72034 50.6444 7.3397 48.8615C7.23954 48.4207 7.2195 47.98 7.1594 47.4791C6.65857 47.4391 6.17777 47.379 5.69697 47.399C5.0559 47.419 4.83553 47.7997 5.0559 48.4007C5.2963 49.0417 5.5968 49.6628 5.85723 50.3039C6.35807 51.5059 6.59847 52.7479 6.29797 54.0701C6.0776 55.0317 5.61683 55.6528 4.8155 56.0134C4.79546 55.8331 4.79546 55.6528 4.77543 55.4925C4.65523 54.1302 4.53503 52.768 4.3948 51.3857C4.3948 51.3055 4.37476 51.1853 4.3347 51.1252C4.2145 50.965 4.07426 50.8047 3.93403 50.6444C3.7938 50.8047 3.63353 50.9249 3.53336 51.1052C3.41316 51.3456 3.37309 51.606 3.27293 51.9266C3.29296 50.6044 3.59346 49.9032 4.2145 49.8631C3.99413 49.182 3.7938 48.5209 3.59346 47.9399C4.07426 46.8381 4.5751 45.7563 5.03587 44.6745C5.19613 44.2938 5.37643 44.1336 5.7771 44.1336C7.62017 44.1336 9.34304 44.6544 11.0459 45.2755C11.9274 45.596 12.7888 45.9366 13.8506 46.3372C12.6886 44.2538 13.7504 42.5509 14.3714 40.788C13.3698 40.5276 12.9491 40.788 12.8289 41.7897C12.7888 42.1703 12.7688 42.5509 12.7688 42.9316C12.7688 43.3122 12.5885 43.5927 12.2279 43.6127C11.6469 43.6728 11.0459 43.7129 10.4849 43.6327C9.14271 43.4524 7.84054 43.0918 6.4983 42.9516C4.95573 42.8114 3.59346 43.2721 2.71199 44.8147C2.55173 43.0918 4.13436 41.5292 4.83553 40.8281C5.13603 40.5276 5.3564 40.2271 5.51667 39.9666C6.05757 39.6661 6.57844 39.3256 7.11934 39.0651C7.86057 38.7246 8.62184 38.4441 9.38311 38.1636C10.0242 37.9032 10.0242 37.9032 10.0041 37.222C10.545 37.222 14.4916 37.182 15.6335 39.1252C15.7738 38.9449 15.8539 38.8448 15.934 38.7446C15.8739 38.7246 15.8539 38.7045 15.8339 38.6845C15.7137 38.6444 15.5133 38.6444 15.4532 38.5443C14.692 37.4224 13.5501 37.0818 12.288 37.0818C10.7053 37.1018 9.10264 37.182 7.52 37.202C6.93904 37.202 6.35807 37.182 5.79713 37.0818C5.21617 36.9616 5.13603 36.6811 5.39647 36.2805C6.1978 36.2805 6.93904 36.3606 7.66024 36.2604C10.0041 35.98 12.308 36.02 14.5718 36.8214C14.7721 36.8815 15.1327 36.8615 15.2329 36.7413C15.293 36.6411 15.3531 36.5409 15.3731 36.4407C15.4933 36.5008 15.6536 36.5409 15.7738 36.5609C15.914 36.581 16.0542 36.601 16.1945 36.621C16.2746 36.7012 16.2145 36.9215 16.2145 37.1219C17.0158 37.1619 17.7971 37.222 18.5784 37.2621C18.5784 37.2421 18.5784 37.222 18.5985 37.222C18.318 37.1419 18.0576 37.0618 17.7771 36.9816C17.7771 36.9416 17.7771 36.9015 17.7971 36.8414C18.7587 36.8414 19.7203 36.7613 20.6619 36.8614C24.6686 37.222 28.6352 37.763 32.5016 38.9249C35.5668 39.8464 38.1711 41.5292 40.2546 43.9733C40.8956 44.7145 41.3764 45.596 41.8572 46.4975C38.1511 42.9115 33.6836 41.2688 28.5951 41.2287C28.6152 41.2688 28.6152 41.3089 28.6352 41.3489C28.6552 41.389 28.6753 41.4291 28.6953 41.4892C28.6352 41.4892 28.5751 41.5092 28.515 41.4892C26.4916 41.1286 24.6085 40.3072 22.7654 39.4257C22.4048 39.2655 22.1243 39.2254 21.8238 39.4658C21.5033 39.7262 21.1828 39.6461 20.8222 39.586C19.8606 39.3857 18.8789 39.2655 17.8773 39.1052C17.5968 40.6878 16.6352 40.1069 15.7938 39.8264C15.7137 40.3473 15.4332 40.5877 14.9724 40.6678C14.8322 40.6878 14.6719 40.8681 14.6118 41.0084C14.2512 42.01 13.9107 43.0117 13.6102 44.0334C13.4098 44.7346 13.6903 45.3756 14.0309 45.9967C14.4115 45.4157 14.7521 44.8548 15.1327 44.3139C16.3748 42.611 18.0576 41.6294 20.141 41.4691C20.6619 41.4291 21.2028 41.7095 21.7437 41.8698C21.8439 41.8898 21.944 42.0902 21.944 42.2104C21.8439 43.1519 21.7637 44.1135 21.6035 45.0351C21.5634 45.3155 21.303 45.616 21.0626 45.8564ZM27.0325 42.2705C27.0325 42.8915 27.0325 43.3523 27.0325 43.773C26.8122 43.7129 26.3915 43.2521 26.4716 42.9716C26.5517 42.7112 26.8122 42.5309 27.0325 42.2705ZM25.2696 43.3122C25.2295 43.3523 25.1895 43.3723 25.1494 43.4124C24.5885 42.6912 24.0476 41.97 23.4866 41.2488C23.5267 41.2287 23.5668 41.1887 23.5868 41.1686C24.1477 41.8698 24.7087 42.591 25.2696 43.3122ZM44.0008 66.6912C43.2996 66.7513 42.6185 66.8114 41.9173 66.8514C38.9324 66.9917 35.9674 67.212 32.9824 67.2321C28.6352 67.2521 25.2295 65.2688 22.5651 61.9232C22.1844 61.4424 21.944 60.8414 21.5634 60.2003C24.5083 59.6194 26.2112 57.8765 27.1327 55.2721C27.2329 56.7145 25.4098 58.8581 23.2462 59.98C23.7871 60.4007 24.3881 60.8414 24.9691 61.3022C25.6102 61.803 26.2312 62.3439 26.8522 62.8448C28.7354 64.3473 30.9791 64.8681 33.303 65.0484C35.687 65.2488 38.0509 65.389 40.4349 65.6094C41.4165 65.7095 42.3981 65.9299 43.3597 66.1302C43.6001 66.1903 43.8205 66.3907 44.0409 66.5109C44.0409 66.571 44.0208 66.6311 44.0008 66.6912ZM53.096 65.3489C52.7354 65.369 52.3748 65.409 52.0142 65.4291C46.9657 65.7696 42.0776 65.0484 37.3898 63.0852C34.7854 62.0034 32.8222 60.1202 31.1193 57.8564C31.5801 58.0367 32.0609 58.2371 32.5217 58.3973C32.8422 58.5175 33.1627 58.6377 33.5033 58.7179C33.8439 58.798 34.0442 58.9382 34.1444 59.3389C34.3046 59.98 34.7454 60.4608 35.3063 60.7813C38.2512 62.5443 41.3564 63.8464 44.7821 64.2671C45.5233 64.3473 46.2445 64.4474 46.9858 64.4875C48.2679 64.5476 48.4482 64.3673 48.3881 63.0451C49.9908 63.7863 51.5534 64.4875 53.116 65.2087C53.116 65.2688 53.116 65.3089 53.096 65.3489Z" fill="#0A0A0A"/>
<path d="M9.38308 41.5292L8.38141 41.6494C8.38141 41.5292 8.36138 41.4491 8.30128 41.4291C8.24118 41.409 8.16104 41.5092 8.10094 41.6695L7.88057 41.6895C7.74034 41.7095 7.62014 41.8498 7.64017 42.01C7.66021 42.1703 7.80044 42.2905 7.94067 42.2705H7.98074C7.98074 42.3706 8.00078 42.4508 8.06088 42.4708C8.12098 42.4908 8.20111 42.3907 8.26121 42.2504L9.46321 42.1102C9.60345 42.0902 9.72365 41.9499 9.70361 41.7897C9.68358 41.6294 9.52331 41.5092 9.38308 41.5292Z" fill="#0A0A0A"/>
<path d="M5.75708 42.0301L5.09598 42.1503C5.09598 42.0701 5.07594 42.0301 5.03588 42.01C4.99581 42.01 4.95574 42.0701 4.91568 42.1703L4.77544 42.1903C4.67528 42.2104 4.61518 42.3105 4.63521 42.4107C4.65524 42.5109 4.73538 42.571 4.83554 42.571H4.87561C4.87561 42.6311 4.89564 42.6912 4.93571 42.6912C4.97578 42.6912 5.01584 42.6311 5.05591 42.5309L5.83721 42.3907C5.93738 42.3706 5.99748 42.2705 5.97745 42.1703C5.93738 42.0902 5.85725 42.01 5.75708 42.0301Z" fill="#0A0A0A"/>
<mask id="mask0_408_397" style="mask-type:luminance" maskUnits="userSpaceOnUse" x="24" y="67" width="43" height="21">
<path d="M45.5434 85.9833L43.3397 87.1653L41.136 85.9833C34.5851 82.4574 29.1961 78.4107 24.7688 74.1035C25.3898 74.0033 26.0108 73.8831 26.6319 73.7028C28.5951 73.1419 30.0175 71.7195 30.899 69.4958C30.9791 69.3155 31.0392 69.1352 31.0993 68.9549C32.1811 69.1152 33.343 69.1753 34.6452 69.1753C35.8272 69.1753 36.9891 69.1152 38.091 69.0551C39.333 68.975 40.5951 68.8948 41.8172 68.8147C43.5 68.6945 45.2429 68.5743 46.9457 68.4942C50.131 68.3339 53.3564 68.2137 56.4816 68.0735C57.2629 68.0334 58.0442 68.0134 58.8456 67.9733C60.889 67.8932 62.9724 67.813 65.0158 67.7529C65.3764 68.374 65.8172 68.8948 66.3781 69.3155C61.2496 75.3856 54.4783 81.1753 45.5434 85.9833Z" fill="white"/>
</mask>
<g mask="url(#mask0_408_397)">
<path d="M41.116 85.9833C18.3981 73.7429 9.72369 55.3122 6.43821 42.03C2.8923 27.6861 4.71534 16.2671 4.79547 15.7863L5.25624 12.9416L43.2996 1.3222L81.3431 12.9416L81.8038 15.7863C81.884 16.2671 83.707 27.7062 80.1611 42.03C76.8756 55.3322 68.2011 73.7429 45.4833 85.9833L43.2796 87.1653L41.116 85.9833Z" fill="url(#paint0_linear_408_397)"/>
<path d="M41.7571 84.8214C19.4599 72.8013 10.9457 54.7513 7.74038 41.7095C4.2746 27.6461 6.05757 16.4675 6.11767 16.0067L6.45824 13.9833L43.3197 2.72455L80.1811 13.9833L80.5217 16.0067C80.6018 16.4675 82.3848 27.6461 78.899 41.7095C75.6936 54.7513 67.1995 72.8013 44.9023 84.8214L43.3197 85.6628L41.7571 84.8214Z" fill="url(#paint1_linear_408_397)"/>
<path d="M77.2562 16.5476L43.3196 6.19032L9.38307 16.5476C9.38307 16.5476 2.23115 59.7596 43.3196 81.8965C84.4081 59.7596 77.2562 16.5476 77.2562 16.5476Z" fill="#720F0B"/>
</g>
<mask id="mask1_408_397" style="mask-type:luminance" maskUnits="userSpaceOnUse" x="4" y="1" width="79" height="41">
<path d="M80.4015 41.1887C79.9207 41.0084 79.3798 40.8882 78.8589 40.8882C78.7187 40.8882 78.5785 40.8882 78.4382 40.9082L78.1978 40.5276C78.1978 40.5276 78.1778 40.5276 78.1778 40.5075L78.0175 40.2872L77.6369 40.187C77.3564 40.0267 77.0159 39.8665 76.5952 39.7863C76.4349 39.7463 76.2546 39.6861 76.0543 39.4057C75.1127 38.0234 73.7104 37.182 71.8873 36.8815C69.8039 36.5409 67.9608 36.3005 66.278 36.1603C65.5367 36.1002 65.2162 35.98 64.8556 35.6394C62.9524 33.7563 60.4883 33.2354 58.3448 32.9549C58.3247 32.9549 58.3047 32.9349 58.2847 32.9149C57.7838 32.5743 57.283 32.1937 56.7822 31.8331C56.1811 31.3923 55.5601 30.9316 54.919 30.4908C51.1127 27.8865 47.667 26.384 44.0609 25.783C39.0125 24.9416 33.8439 24.5209 28.6953 24.5209C25.4099 24.5209 22.0443 24.7012 18.7187 25.0417C14.8723 25.4424 11.8473 26.8648 9.50335 29.409C9.44325 29.4691 9.34309 29.5493 9.26295 29.6494C9.08265 29.8097 8.88232 29.99 8.68198 30.2304C7.56011 31.5927 6.29801 32.8147 4.95577 33.8364C4.93574 33.8564 4.91571 33.8765 4.87564 33.8965C3.51337 23.5793 4.69534 16.1469 4.77547 15.7663L5.23624 12.9215L43.2796 1.30218L81.3231 12.9215L81.7838 15.7663C81.9241 16.2471 83.667 27.2454 80.4015 41.1887Z" fill="white"/>
</mask>
<g mask="url(#mask1_408_397)">
<path d="M41.0359 87.4858C17.5167 74.8047 8.52167 55.7129 5.116 41.9499C1.44989 27.1052 3.33303 15.2655 3.41316 14.7646L3.89396 11.8197L43.2996 -0.200317L82.7053 11.8197L83.1861 14.7646C83.2662 15.2655 85.1494 27.1052 81.4833 41.9499C78.0776 55.7129 69.1026 74.8047 45.5634 87.4858L43.2796 88.7079L41.0359 87.4858Z" fill="#C6C6C6"/>
<path d="M41.116 85.9833C18.3981 73.7429 9.72366 55.3122 6.43818 42.0301C2.89227 27.6862 4.71531 16.2671 4.79545 15.7863L5.25621 12.9416L43.2996 1.32222L81.343 12.9416L81.8038 15.7863C81.8839 16.2671 83.707 27.7062 80.1611 42.0301C76.8756 55.3322 68.2011 73.7429 45.4833 85.9833L43.2796 87.1653L41.116 85.9833Z" fill="url(#paint2_linear_408_397)"/>
<path d="M41.7571 84.8214C19.4599 72.8014 10.9457 54.7513 7.7404 41.7095C4.27463 27.6461 6.0576 16.4675 6.1177 16.0067L6.45827 13.9833L43.3197 2.72456L80.1811 13.9833L80.5217 16.0067C80.6018 16.4675 82.3848 27.6461 78.899 41.7095C75.6937 54.7513 67.1995 72.8014 44.9023 84.8214L43.3197 85.6628L41.7571 84.8214Z" fill="url(#paint3_linear_408_397)"/>
<path d="M77.2562 16.5476L43.3197 6.19033L9.3831 16.5476C9.3831 16.5476 2.23118 59.7596 43.3197 81.8965C84.4081 59.7596 77.2562 16.5476 77.2562 16.5476Z" fill="url(#paint4_linear_408_397)"/>
<path d="M77.2562 16.5476L43.3197 6.19033L9.3831 16.5476C9.3831 16.5476 2.23118 59.7596 43.3197 81.8965C84.4081 59.7596 77.2562 16.5476 77.2562 16.5476Z" fill="#0D7FC3"/>
</g>
<path d="M42.7788 25.3823H41.2362C41.7571 25.4424 42.2579 25.5225 42.7788 25.6027V25.3823Z" fill="#3C3C3B"/>
<path d="M40.7955 24.8414H39.7938V20.0334H39.2529V17.6695H38.2512V16.9883H37.6502V17.8297H34.6853V24.7412C36.7287 24.8815 38.7721 25.0618 40.7955 25.3222V24.8414Z" fill="#0A0A0A"/>
<path d="M13.2696 26.5242V26.5843C13.3096 26.5643 13.3497 26.5442 13.3898 26.5242H13.2696Z" fill="#3C3C3B"/>
<path d="M76.0743 32.414V25.3022H75.0726V18.7312H70.5651V28.5876H68.6619V31.192H67.6603V32.2538H66.278V30.7312H65.5968V29.6695H64.1544V28.828H61.1694V26.8447H60.0275V26.0033H57.6636V27.0651H56.8222V31.0317H55.6603C56.0409 31.3122 56.4215 31.5726 56.7821 31.8531C57.2629 32.2137 57.7838 32.5743 58.2846 32.9349C58.3047 32.9549 58.3247 32.9549 58.3447 32.975C60.4883 33.2554 62.9324 33.7963 64.8556 35.6594C65.1962 36 65.5167 36.1202 66.278 36.1803C67.9608 36.3205 69.7838 36.5609 71.8873 36.9015C73.7104 37.202 75.1127 38.0434 76.0543 39.4257C76.0543 39.4257 76.0543 39.4457 76.0743 39.4457C76.6152 36.9816 77.0159 34.6177 77.2763 32.414H76.0743Z" fill="#0A0A0A"/>
<path d="M33.4031 24.6611V22.798H31.9607V20.7346H29.7571V22.6377H28.9958V21.9566H27.4733V20.6544H26.6319V17.7496H26.0309V20.8748H25.5701V22.0968H25.2696V24.601C26.4315 24.5609 27.5935 24.5409 28.7554 24.5409C30.2779 24.5409 31.8405 24.581 33.4031 24.6611Z" fill="#0A0A0A"/>
<path d="M9.52338 29.4291C10.0442 28.8681 10.6052 28.3473 11.1861 27.9065V26.5242H10.4249V25.5225H8.94241C8.96244 26.8247 9.04258 28.2471 9.16278 29.7496C9.20284 29.7095 9.24291 29.6895 9.28298 29.6494C9.36311 29.5893 9.46328 29.5092 9.52338 29.4291Z" fill="#0A0A0A"/>
<path d="M23.0058 24.7212V24.5409H22.0843V20.4942H20.9424V19.7329H19.8005V18.8114H19.1995V19.6528H18.5183V16.9883H17.3764V19.5927H16.1544V22.798H15.4532V25.7028C16.4749 25.3823 17.5567 25.182 18.7387 25.0618C20.1611 24.9215 21.5834 24.8013 23.0058 24.7212Z" fill="#0A0A0A"/>
<path d="M13.4699 112.588V113.008C13.4699 116.554 12.0476 120 7.43987 120C2.49162 120 0.969086 116.815 0.969086 109.823C0.969086 102.831 2.51166 99.6461 7.47994 99.6461C13.0492 99.6461 13.3698 103.753 13.3698 105.796V106.157H10.2445V105.836C10.2445 104.033 9.70364 101.95 7.43987 102.03C5.13603 102.03 4.0943 103.452 4.0943 109.763C4.0943 116.073 5.13603 117.656 7.43987 117.656C10.0442 117.656 10.3447 114.751 10.3447 112.928V112.608H13.4699V112.588Z" fill="#606060"/>
<path d="M15.6135 99.8064H18.5785V102.771H15.6135V99.8064ZM15.6135 104.855H18.5785V119.619H15.6135V104.855Z" fill="#606060"/>
<path d="M29.1161 117.796H29.056C28.6753 118.758 27.9341 120 25.8105 120C22.3448 120 20.9825 117.115 20.9825 112.047C20.9825 105.496 23.2863 104.474 25.5301 104.474C27.1127 104.474 28.3348 105.275 28.8757 106.578H28.9358V100.027H31.9007V119.619H29.096V117.796H29.1161ZM26.4316 106.818C24.7287 106.818 24.1277 108.18 24.1277 112.167C24.1277 115.513 24.5685 117.636 26.6319 117.636C28.6553 117.636 29.1361 115.553 29.1361 112.387C29.1161 108.861 28.6954 106.818 26.4316 106.818Z" fill="#606060"/>
<path d="M37.3097 112.608V113.449C37.3097 115.432 37.5501 117.957 39.7738 117.957C41.8773 117.957 42.1377 115.533 42.1377 114.671H44.9424C44.9424 117.937 42.9591 120 39.7537 120C37.3297 120 34.3447 119.279 34.3447 112.447C34.3447 108.581 35.1661 104.454 39.8138 104.454C43.9207 104.454 45.0225 106.918 45.0225 111.045V112.608H37.3097ZM42.0576 110.584V109.783C42.0576 107.92 41.4566 106.497 39.7738 106.497C37.8906 106.497 37.3097 108.361 37.3097 110.284V110.584H42.0576Z" fill="#606060"/>
<path d="M59.707 112.588V113.008C59.707 116.554 58.2846 120 53.677 120C48.7287 120 47.2062 116.815 47.2062 109.823C47.2062 102.831 48.7487 99.6461 53.717 99.6461C59.2863 99.6461 59.6068 103.753 59.6068 105.796V106.157H56.4816V105.836C56.4816 104.033 55.9407 101.95 53.677 102.03C51.3731 102.03 50.3314 103.452 50.3314 109.763C50.3314 116.073 51.3731 117.656 53.677 117.656C56.2813 117.656 56.5818 114.751 56.5818 112.928V112.608H59.707V112.588Z" fill="#606060"/>
<path d="M71.3865 116.534C71.3865 117.075 71.707 117.576 72.1478 117.576C72.3481 117.576 72.5284 117.556 72.6486 117.496V119.419C72.288 119.579 71.7671 119.78 71.1862 119.78C69.864 119.78 68.7621 119.259 68.682 117.836H68.6219C67.8206 119.299 66.6787 120 64.9357 120C62.5718 120 61.0893 118.678 61.0893 115.853C61.0893 112.568 62.5117 111.866 64.515 111.225L66.8189 110.584C67.8807 110.284 68.5418 109.983 68.5418 108.681C68.5418 107.339 68.081 106.477 66.5184 106.477C64.5351 106.477 64.2747 107.88 64.2747 109.302H61.47C61.47 106.177 62.7521 104.454 66.6586 104.454C69.263 104.454 71.3464 105.476 71.3464 108.08V116.534H71.3865ZM68.6019 111.826C67.8406 112.427 66.1778 112.788 65.3164 113.189C64.475 113.609 64.1144 114.471 64.1144 115.573C64.1144 116.815 64.7154 117.796 65.9575 117.796C67.7404 117.796 68.6219 116.454 68.6219 114.29V111.826H68.6019Z" fill="#606060"/>
<path d="M79.3798 98.8247C82.6653 98.8247 85.3097 101.489 85.3097 104.755C85.3097 108.02 82.6452 110.684 79.3798 110.684C76.0943 110.684 73.4499 108.02 73.4499 104.755C73.4499 101.489 76.0943 98.8247 79.3798 98.8247ZM83.8673 104.775C83.8673 102.19 81.8639 100.127 79.3798 100.127C76.8956 100.127 74.8923 102.21 74.8923 104.775C74.8923 107.359 76.8956 109.422 79.3798 109.422C81.8639 109.422 83.8673 107.339 83.8673 104.775ZM79.0192 105.295H78.0175V108.16H76.8355V101.369H79.48C81.1628 101.369 82.0242 101.95 82.0242 103.312C82.0242 104.534 81.2429 105.055 80.2813 105.235L82.1444 108.14H80.7621L79.0192 105.295ZM79.2195 104.294C80.0609 104.294 80.8222 104.214 80.8222 103.272C80.8222 102.491 79.9808 102.351 79.3197 102.351H78.0175V104.294H79.2195Z" fill="#606060"/>
<path d="M12.9892 111.606V112.027C12.9892 115.573 11.5668 119.018 6.95915 119.018C2.0109 119.018 0.488365 115.833 0.488365 108.841C0.488365 101.85 2.03094 98.6644 6.99922 98.6644C12.5685 98.6644 12.889 102.771 12.889 104.815V105.175H9.76383V104.835C9.76383 103.032 9.22292 100.948 6.95915 101.028C4.65531 101.028 3.61357 102.451 3.61357 108.761C3.61357 115.072 4.65531 116.654 6.95915 116.654C9.56349 116.654 9.86399 113.75 9.86399 111.927V111.606H12.9892Z" fill="white"/>
<path d="M15.1327 98.8247H18.0977V101.79H15.1327V98.8247ZM15.1327 103.873H18.0977V118.638H15.1327V103.873Z" fill="white"/>
<path d="M28.6152 116.815H28.5551C28.1744 117.776 27.4332 119.018 25.3097 119.018C21.8439 119.018 20.4816 116.134 20.4816 111.065C20.4816 104.514 22.7855 103.492 25.0292 103.492C26.6118 103.492 27.8339 104.294 28.3748 105.596H28.4349V99.0451H31.3998V118.638H28.5951V116.815H28.6152ZM25.9307 105.836C24.2279 105.836 23.6269 107.199 23.6269 111.185C23.6269 114.531 24.0676 116.654 26.131 116.654C28.1544 116.654 28.6352 114.571 28.6352 111.406C28.6152 107.88 28.2145 105.836 25.9307 105.836Z" fill="white"/>
<path d="M36.8289 111.626V112.467C36.8289 114.451 37.0693 116.975 39.293 116.975C41.3965 116.975 41.6569 114.551 41.6569 113.689H44.4616C44.4616 116.955 42.4783 119.018 39.273 119.018C36.8489 119.018 33.8639 118.297 33.8639 111.466C33.8639 107.599 34.6853 103.472 39.3331 103.472C43.4399 103.472 44.5417 105.937 44.5417 110.063V111.626H36.8289ZM41.5768 109.603V108.801C41.5768 106.938 40.9758 105.516 39.293 105.516C37.4099 105.516 36.8289 107.379 36.8289 109.302V109.603H41.5768Z" fill="white"/>
<path d="M59.2062 111.606V112.027C59.2062 115.573 57.7838 119.018 53.1761 119.018C48.2279 119.018 46.7053 115.833 46.7053 108.841C46.7053 101.85 48.2479 98.6644 53.2162 98.6644C58.7855 98.6644 59.106 102.771 59.106 104.815V105.175H55.9808V104.835C55.9808 103.032 55.4399 100.948 53.1761 101.028C50.8723 101.028 49.8306 102.451 49.8306 108.761C49.8306 115.072 50.8723 116.654 53.1761 116.654C55.7805 116.654 56.081 113.75 56.081 111.927V111.606H59.2062Z" fill="white"/>
<path d="M70.9057 115.553C70.9057 116.093 71.2262 116.594 71.6669 116.594C71.8673 116.594 72.0476 116.574 72.1678 116.514V118.437C71.8072 118.598 71.2863 118.798 70.7053 118.798C69.3831 118.798 68.2813 118.277 68.2012 116.855H68.1411C67.3397 118.317 66.1978 119.018 64.4549 119.018C62.091 119.018 60.6085 117.696 60.6085 114.871C60.6085 111.586 62.0309 110.885 64.0342 110.244L66.3381 109.603C67.3998 109.302 68.0609 109.002 68.0609 107.699C68.0609 106.357 67.6002 105.496 66.0376 105.496C64.0542 105.496 63.7938 106.898 63.7938 108.321H60.9891C60.9891 105.195 62.2713 103.472 66.1778 103.472C68.7821 103.472 70.8656 104.494 70.8656 107.098V115.553H70.9057ZM68.101 110.845C67.3397 111.446 65.677 111.806 64.8155 112.207C63.9741 112.628 63.6135 113.489 63.6135 114.591C63.6135 115.833 64.2145 116.815 65.4566 116.815C67.2396 116.815 68.121 115.472 68.121 113.309V110.845H68.101Z" fill="white"/>
<path d="M78.899 97.8431C82.1845 97.8431 84.8289 100.508 84.8289 103.773C84.8289 107.058 82.1645 109.703 78.899 109.703C75.6135 109.703 72.9691 107.038 72.9691 103.773C72.9491 100.508 75.6135 97.8431 78.899 97.8431ZM83.3665 103.773C83.3665 101.189 81.3631 99.1252 78.879 99.1252C76.3948 99.1252 74.3915 101.209 74.3915 103.773C74.3915 106.357 76.3948 108.421 78.879 108.421C81.3631 108.441 83.3665 106.357 83.3665 103.773ZM78.5184 104.314H77.5167V107.179H76.3347V100.387H78.9791C80.6619 100.387 81.5234 100.968 81.5234 102.331C81.5234 103.553 80.7421 104.073 79.7805 104.254L81.6436 107.159H80.2613L78.5184 104.314ZM78.7387 103.312C79.5801 103.312 80.3414 103.232 80.3414 102.29C80.3414 101.509 79.5 101.369 78.8389 101.369H77.5367V103.312H78.7387Z" fill="white"/>
<defs>
<linearGradient id="paint0_linear_408_397" x1="18.1642" y1="72.7742" x2="59.8768" y2="0.525651" gradientUnits="userSpaceOnUse">
<stop stop-color="#4D4D4D"/>
<stop offset="0.1097" stop-color="white"/>
<stop offset="0.2041" stop-color="#B3B3B3"/>
<stop offset="0.327" stop-color="#808080"/>
<stop offset="0.4312" stop-color="#B3B3B3"/>
<stop offset="0.5086" stop-color="white"/>
<stop offset="0.6049" stop-color="#CCCCCC"/>
<stop offset="0.6576" stop-color="#E6E6E6"/>
<stop offset="0.7498" stop-color="#999999"/>
<stop offset="0.8208" stop-color="white"/>
<stop offset="0.9099" stop-color="#999999"/>
<stop offset="1" stop-color="white"/>
</linearGradient>
<linearGradient id="paint1_linear_408_397" x1="13.2573" y1="56.5867" x2="81.9178" y2="16.9456" gradientUnits="userSpaceOnUse">
<stop stop-color="#4D4D4D"/>
<stop offset="0.1097" stop-color="white"/>
<stop offset="0.2041" stop-color="#B3B3B3"/>
<stop offset="0.327" stop-color="#808080"/>
<stop offset="0.4312" stop-color="#B3B3B3"/>
<stop offset="0.5086" stop-color="white"/>
<stop offset="0.6049" stop-color="#CCCCCC"/>
<stop offset="0.6576" stop-color="#E6E6E6"/>
<stop offset="0.7498" stop-color="#999999"/>
<stop offset="0.8208" stop-color="white"/>
<stop offset="0.9099" stop-color="#999999"/>
<stop offset="1" stop-color="white"/>
</linearGradient>
<linearGradient id="paint2_linear_408_397" x1="18.1641" y1="72.7742" x2="59.8768" y2="0.52567" gradientUnits="userSpaceOnUse">
<stop stop-color="#4D4D4D"/>
<stop offset="0.1097" stop-color="white"/>
<stop offset="0.2041" stop-color="#B3B3B3"/>
<stop offset="0.327" stop-color="#808080"/>
<stop offset="0.4312" stop-color="#B3B3B3"/>
<stop offset="0.5086" stop-color="white"/>
<stop offset="0.6049" stop-color="#CCCCCC"/>
<stop offset="0.6576" stop-color="#E6E6E6"/>
<stop offset="0.7498" stop-color="#999999"/>
<stop offset="0.8208" stop-color="white"/>
<stop offset="0.9099" stop-color="#999999"/>
<stop offset="1" stop-color="white"/>
</linearGradient>
<linearGradient id="paint3_linear_408_397" x1="13.2573" y1="56.5868" x2="81.9178" y2="16.9456" gradientUnits="userSpaceOnUse">
<stop stop-color="#4D4D4D"/>
<stop offset="0.1097" stop-color="white"/>
<stop offset="0.2041" stop-color="#B3B3B3"/>
<stop offset="0.327" stop-color="#808080"/>
<stop offset="0.4312" stop-color="#B3B3B3"/>
<stop offset="0.5086" stop-color="white"/>
<stop offset="0.6049" stop-color="#CCCCCC"/>
<stop offset="0.6576" stop-color="#E6E6E6"/>
<stop offset="0.7498" stop-color="#999999"/>
<stop offset="0.8208" stop-color="white"/>
<stop offset="0.9099" stop-color="#999999"/>
<stop offset="1" stop-color="white"/>
</linearGradient>
<linearGradient id="paint4_linear_408_397" x1="8.92465" y1="44.0405" x2="77.7332" y2="44.0405" gradientUnits="userSpaceOnUse">
<stop stop-color="#0B7FC2"/>
<stop offset="0.2349" stop-color="#0F62A5"/>
<stop offset="0.5051" stop-color="#0B7FC2"/>
<stop offset="0.7972" stop-color="#0F62A5"/>
<stop offset="1" stop-color="#0B7FC2"/>
</linearGradient>
</defs>
</svg>
