<svg width="241" height="210" viewBox="0 0 241 210" fill="none" xmlns="http://www.w3.org/2000/svg">
<path d="M35.29 191.093C82.3512 215.277 158.629 215.277 205.7 191.093C252.772 166.909 252.761 127.696 205.7 103.507C158.639 79.318 82.3617 79.3232 35.29 103.507C-11.7816 127.691 -11.7451 166.909 35.29 191.093Z" fill="#F5F5F5"/>
<path d="M201.891 126.306C201.948 123.075 205.331 114.623 208.76 110.481C212.19 106.338 217.514 103.366 221.25 104.714C224.721 105.969 224.263 110.538 219.975 113.499C215.687 116.46 209.255 120.16 207.303 125.37L203.285 131.74L201.891 126.306Z" fill="#3F0000"/>
<path opacity="0.1" d="M201.891 126.306C201.948 123.075 205.331 114.623 208.76 110.481C212.19 106.338 217.514 103.366 221.25 104.714C224.721 105.969 224.263 110.538 219.975 113.499C215.687 116.46 209.255 120.16 207.303 125.37L203.285 131.74L201.891 126.306Z" fill="black"/>
<path d="M202.505 128.929C202.555 128.926 202.603 128.906 202.642 128.874C202.68 128.841 202.707 128.796 202.718 128.747C205.076 117.745 214.167 108.93 219.538 107.04C219.568 107.031 219.595 107.015 219.619 106.994C219.642 106.973 219.661 106.948 219.675 106.92C219.688 106.892 219.696 106.862 219.698 106.83C219.699 106.799 219.695 106.768 219.684 106.739C219.673 106.709 219.657 106.683 219.636 106.66C219.616 106.637 219.59 106.618 219.562 106.605C219.534 106.592 219.504 106.585 219.473 106.584C219.442 106.582 219.411 106.587 219.382 106.598C213.902 108.524 204.649 117.48 202.255 128.648C202.244 128.709 202.257 128.772 202.291 128.825C202.324 128.877 202.377 128.914 202.437 128.929H202.505Z" fill="white"/>
<path d="M204.025 136.023C204.576 134.217 206.85 131.256 210.483 128.841C214.5 126.171 219.549 125 220.745 122.882C222.182 120.348 220.064 117.886 215.978 118.323C211.893 118.76 204.618 124.199 203.327 132.562L204.025 136.023Z" fill="#720F0B"/>
<path d="M203.27 134.102C203.315 134.099 203.359 134.083 203.395 134.056C203.432 134.03 203.461 133.993 203.478 133.951C207.027 124.558 214.298 121.362 217.644 120.988C217.675 120.984 217.705 120.975 217.732 120.96C217.759 120.945 217.783 120.925 217.802 120.901C217.822 120.877 217.836 120.849 217.845 120.819C217.853 120.789 217.856 120.758 217.852 120.727C217.849 120.696 217.841 120.666 217.826 120.639C217.811 120.611 217.791 120.587 217.767 120.567C217.742 120.548 217.714 120.533 217.684 120.525C217.654 120.517 217.623 120.515 217.592 120.519C213.892 120.93 206.663 124.193 203.02 133.785C202.998 133.843 203 133.907 203.025 133.964C203.051 134.02 203.098 134.064 203.155 134.087C203.191 134.105 203.231 134.111 203.27 134.102Z" fill="white"/>
<path d="M44.0174 156.876L47.957 154.622C47.957 154.622 49.8461 144.214 48.4357 135.263C46.4478 122.679 37.8817 118.339 34.7696 119.593C31.6575 120.847 30.9238 124.568 36.5442 131.838C39.8593 136.132 44.1267 145.203 44.0174 156.876Z" fill="#590000"/>
<g opacity="0.1">
<path d="M44.0174 156.876L47.957 154.622C47.957 154.622 49.8461 144.214 48.4357 135.263C46.4478 122.679 37.8817 118.339 34.7696 119.593C31.6575 120.847 30.9238 124.568 36.5442 131.838C39.8593 136.132 44.1267 145.203 44.0174 156.876Z" fill="black"/>
</g>
<path d="M45.4433 151.88H45.4069C45.37 151.875 45.3344 151.863 45.3023 151.845C45.2701 151.826 45.242 151.801 45.2196 151.772C45.1973 151.742 45.1811 151.708 45.1722 151.672C45.1632 151.636 45.1616 151.599 45.1675 151.562C46.7964 139.785 42.045 126.879 36.7367 121.675C36.7103 121.649 36.6893 121.618 36.6749 121.584C36.6606 121.55 36.6532 121.514 36.6532 121.477C36.6532 121.44 36.6606 121.403 36.6749 121.37C36.6893 121.336 36.7103 121.305 36.7367 121.279C36.7894 121.227 36.8604 121.198 36.9345 121.198C37.0086 121.198 37.0796 121.227 37.1323 121.279C42.555 126.577 47.3793 139.691 45.7295 151.645C45.7172 151.712 45.6817 151.772 45.6293 151.815C45.5769 151.858 45.511 151.881 45.4433 151.88Z" fill="white"/>
<path d="M33.0887 163.188C32.4694 163.547 31.184 162.767 30.6948 162.434C29.852 161.862 29.1709 161.082 28.7172 160.17C28.2009 159.136 28.019 157.966 28.1968 156.824C28.2954 156.223 28.4362 155.63 28.6183 155.049L29.1387 153.321C29.3396 152.765 29.4246 152.174 29.3885 151.583C29.2376 150.402 28.1916 149.574 27.2392 148.861C26.1984 148.07 25.0899 147.029 25.0951 145.609C25.1728 144.508 25.6119 143.463 26.3441 142.637C27.0259 141.779 27.8325 141.019 28.4258 140.108C28.9145 139.483 29.1752 138.71 29.1648 137.917C29.1017 137.429 28.9387 136.96 28.686 136.538C28.1074 135.658 27.6026 134.732 27.1768 133.769C26.8281 132.775 26.8801 131.542 27.6556 130.829C28.0024 130.57 28.3973 130.383 28.8173 130.278C29.2372 130.174 29.6738 130.154 30.1015 130.22C30.9068 130.32 31.6808 130.594 32.3705 131.022C34.6291 132.276 35.9146 134.945 38.3085 135.913C39.2594 136.208 40.2275 136.444 41.2072 136.621C41.6971 136.712 42.1627 136.905 42.574 137.186C42.9853 137.468 43.3334 137.832 43.5959 138.255C44.4754 140.009 42.8413 142.174 43.4606 144.037C43.981 145.687 45.6099 146.317 46.5102 147.8C46.875 148.457 47.0225 149.213 46.9318 149.959C46.8515 151.219 46.5429 152.453 46.021 153.602C45.4346 154.745 44.765 155.842 44.0174 156.886C43.981 156.912 33.1824 163.136 33.0887 163.188Z" fill="#720F0B"/>
<path d="M39.4845 159.774C39.4476 159.773 39.4113 159.764 39.3777 159.749C39.3442 159.734 39.3139 159.712 39.2888 159.685C39.2637 159.658 39.2441 159.626 39.2313 159.591C39.2184 159.557 39.2125 159.52 39.2139 159.483C39.6771 148.336 34.4209 136.023 30.601 132.447C30.5501 132.394 30.5217 132.323 30.5217 132.25C30.5217 132.176 30.5501 132.105 30.601 132.052C30.6537 132 30.7247 131.97 30.7988 131.97C30.8729 131.97 30.9439 132 30.9965 132.052C34.8945 135.695 40.2547 148.216 39.7864 159.525C39.7785 159.597 39.7425 159.664 39.6862 159.711C39.6298 159.757 39.5575 159.78 39.4845 159.774Z" fill="white"/>
<path d="M37.8141 146.608H37.7308C35.089 145.879 32.3754 145.441 29.6384 145.302C29.6015 145.3 29.5652 145.292 29.5316 145.276C29.498 145.261 29.4678 145.239 29.4426 145.212C29.4175 145.185 29.398 145.153 29.3851 145.118C29.3723 145.084 29.3664 145.047 29.3678 145.01C29.3684 144.973 29.3765 144.936 29.3917 144.902C29.4068 144.869 29.4286 144.838 29.4558 144.813C29.4831 144.787 29.5151 144.768 29.55 144.755C29.585 144.743 29.6221 144.737 29.6592 144.739C32.4452 144.885 35.2074 145.332 37.8974 146.072C37.9594 146.093 38.012 146.136 38.046 146.192C38.0799 146.248 38.0931 146.315 38.0832 146.38C38.0733 146.445 38.041 146.504 37.9918 146.548C37.9426 146.591 37.8798 146.616 37.8141 146.618V146.608Z" fill="white"/>
<path d="M34.4626 159.051L91.2556 191.837C91.9539 192.191 92.7259 192.376 93.509 192.376C94.2921 192.376 95.0641 192.191 95.7624 191.837L203.296 129.746C204.54 129.028 204.54 127.862 203.296 127.144L146.498 94.358C145.799 94.0037 145.027 93.8191 144.244 93.8191C143.461 93.8191 142.689 94.0037 141.991 94.358L34.4626 156.449C33.2188 157.172 33.2188 158.333 34.4626 159.051Z" fill="#37474F"/>
<path d="M65.1568 174.284C66.1247 174.774 67.1944 175.029 68.2793 175.029C69.3642 175.029 70.4339 174.774 71.4018 174.284C73.1296 173.284 73.1296 171.681 71.4018 170.672C70.4339 170.182 69.3642 169.926 68.2793 169.926C67.1944 169.926 66.1247 170.182 65.1568 170.672C63.429 171.671 63.429 173.305 65.1568 174.284Z" fill="#263238"/>
<path d="M91.2556 191.842L34.4626 159.056C33.3489 158.416 33.2344 157.417 34.1087 156.699C33.5537 157.138 33.0976 157.69 32.7703 158.318C32.443 158.945 32.2518 159.635 32.2092 160.342V162.46C32.2511 163.242 32.4771 164.003 32.8686 164.681C33.2602 165.359 33.8063 165.936 34.4626 166.363L91.2556 199.149C91.9506 199.51 92.7259 199.69 93.509 199.669V192.378C92.7245 192.394 91.9491 192.209 91.2556 191.842Z" fill="#455A64"/>
<path d="M203.296 137.069C203.952 136.641 204.497 136.064 204.889 135.386C205.28 134.708 205.507 133.947 205.549 133.166V131.047C205.505 130.341 205.313 129.651 204.985 129.023C204.657 128.395 204.2 127.844 203.645 127.405C204.524 128.123 204.41 129.122 203.296 129.767L95.7624 191.842C95.068 192.205 94.2922 192.384 93.509 192.363V199.69C94.2922 199.712 95.068 199.533 95.7624 199.17L203.296 137.069Z" fill="#263238"/>
<path d="M100.618 185.046L47.0151 154.091C46.2657 153.659 46.2657 152.962 47.0151 152.53L135.184 101.597C135.603 101.384 136.067 101.273 136.537 101.273C137.007 101.273 137.471 101.384 137.89 101.597L191.519 132.546C192.268 132.973 192.268 133.675 191.519 134.107L103.319 185.046C102.901 185.259 102.438 185.37 101.968 185.37C101.499 185.37 101.036 185.259 100.618 185.046Z" fill="#FAFAFA"/>
<path d="M86.6759 143.397L118.385 161.7L98.3696 173.258C98.0197 173.433 97.634 173.524 97.2429 173.524C96.8519 173.524 96.4661 173.433 96.1162 173.258L66.6607 156.251C66.5247 156.205 66.4067 156.117 66.323 156.001C66.2394 155.884 66.1945 155.744 66.1945 155.6C66.1945 155.457 66.2394 155.317 66.323 155.2C66.4067 155.084 66.5247 154.996 66.6607 154.95L86.6759 143.397Z" fill="#E6E6E6"/>
<path d="M118.359 161.7L114.622 146.847C114.537 146.493 114.34 146.175 114.06 145.942C113.777 145.701 113.426 145.554 113.056 145.52L86.6552 143.397L118.359 161.7Z" fill="#E0E0E0"/>
<path d="M118.359 161.7L89.9806 160.529C89.6407 160.515 89.3168 160.381 89.067 160.15C88.8171 159.919 88.6576 159.607 88.6171 159.269L86.6499 143.392L118.359 161.7Z" fill="#E0E0E0"/>
<path d="M118.359 161.7L89.9806 160.529C89.6407 160.515 89.3168 160.381 89.067 160.15C88.8171 159.919 88.6576 159.607 88.6171 159.269L86.6499 143.392L90.1523 159.004C90.1839 159.143 90.2589 159.269 90.3665 159.362C90.4741 159.456 90.6087 159.513 90.7508 159.524L118.359 161.7Z" fill="#FAFAFA"/>
<path d="M93.0146 160.482L97.2456 173.909L98.3697 173.258L93.0146 160.482Z" fill="#FAFAFA"/>
<path d="M65.5366 155.6L66.6607 154.95L88.7888 158.041L65.5366 155.6Z" fill="#FAFAFA"/>
<path d="M104.714 136.72L129.938 151.292C130.287 151.469 130.673 151.561 131.065 151.561C131.456 151.561 131.842 151.469 132.191 151.292L167.991 130.631C168.127 130.585 168.245 130.497 168.329 130.381C168.412 130.264 168.457 130.124 168.457 129.981C168.457 129.837 168.412 129.697 168.329 129.58C168.245 129.464 168.127 129.376 167.991 129.33L142.766 114.758C142.417 114.581 142.031 114.489 141.64 114.489C141.248 114.489 140.862 114.581 140.513 114.758L104.714 135.419C104.578 135.465 104.46 135.553 104.376 135.669C104.292 135.786 104.247 135.926 104.247 136.069C104.247 136.213 104.292 136.353 104.376 136.47C104.46 136.586 104.578 136.674 104.714 136.72Z" fill="#E6E6E6"/>
<path d="M124.77 134.794C124.47 134.327 124.292 133.792 124.253 133.238C124.213 132.684 124.315 132.129 124.547 131.625C125.015 130.584 126.035 129.585 127.601 128.685C129.319 127.675 131.215 127.005 133.185 126.712C135.108 126.435 137.065 126.506 138.962 126.92C140.919 127.346 142.797 128.079 144.525 129.091C146.198 130.052 147.336 131.044 147.939 132.067C148.234 132.503 148.41 133.008 148.45 133.533C148.491 134.058 148.393 134.584 148.168 135.06C147.71 136.033 146.748 136.944 145.29 137.787C143.893 138.631 142.321 139.144 140.695 139.285C139.341 139.417 137.979 139.138 136.787 138.484C136.573 138.391 136.381 138.254 136.224 138.082C136.067 137.91 135.949 137.706 135.876 137.485C135.841 137.293 135.858 137.096 135.925 136.913C135.992 136.73 136.106 136.568 136.256 136.444C135.418 136.512 134.574 136.454 133.753 136.272C132.948 136.099 132.175 135.8 131.463 135.388C130.262 134.694 129.635 133.941 129.579 133.129C129.523 132.317 130.098 131.571 131.302 130.891C132.754 130.039 134.417 129.612 136.1 129.658C137.819 129.696 139.5 130.174 140.981 131.047C141.594 131.389 142.141 131.839 142.595 132.374C142.955 132.771 143.19 133.265 143.271 133.795L138.587 136.512C138.208 136.73 137.999 136.923 137.968 137.089C137.937 137.256 138.072 137.433 138.369 137.61C139.017 137.924 139.759 137.987 140.451 137.787C141.47 137.548 142.445 137.149 143.339 136.605C144.515 135.929 145.259 135.2 145.571 134.435C145.728 134.064 145.787 133.659 145.745 133.259C145.702 132.858 145.558 132.475 145.327 132.145C144.699 131.248 143.863 130.516 142.891 130.012C140.894 128.83 138.637 128.16 136.318 128.06C133.967 127.994 131.646 128.604 129.631 129.819C128.351 130.558 127.529 131.339 127.164 132.161C126.982 132.544 126.901 132.967 126.93 133.39C126.959 133.813 127.097 134.222 127.331 134.576C127.961 135.503 128.813 136.26 129.808 136.777C130.469 137.156 131.167 137.468 131.89 137.709C132.564 137.942 133.262 138.099 133.971 138.177C134.047 138.183 134.121 138.202 134.19 138.234C134.226 138.234 134.226 138.302 134.19 138.37L133.503 139.332C133.475 139.37 133.441 139.403 133.404 139.431C133.303 139.466 133.193 139.466 133.092 139.431C132.234 139.323 131.389 139.124 130.573 138.838C129.72 138.555 128.897 138.187 128.117 137.74C126.503 136.876 125.39 135.861 124.77 134.794ZM135.621 135.247C136.339 135.338 137.067 135.201 137.703 134.857L140.424 133.295C140.102 132.749 139.626 132.309 139.056 132.031C138.187 131.521 137.201 131.247 136.193 131.235C135.19 131.217 134.202 131.476 133.336 131.984C132.577 132.421 132.207 132.853 132.228 133.28C132.228 133.707 132.655 134.149 133.451 134.607C134.119 134.977 134.859 135.197 135.621 135.252V135.247Z" fill="#FAFAFA"/>
<path d="M170.536 113.405C170.75 113.516 170.987 113.573 171.228 113.573C171.469 113.573 171.706 113.516 171.92 113.405C172.003 113.377 172.074 113.323 172.125 113.251C172.176 113.18 172.203 113.095 172.203 113.007C172.203 112.92 172.176 112.834 172.125 112.763C172.074 112.692 172.003 112.638 171.92 112.609C171.705 112.503 171.468 112.447 171.228 112.447C170.988 112.447 170.751 112.503 170.536 112.609C170.453 112.638 170.381 112.692 170.331 112.763C170.28 112.834 170.253 112.92 170.253 113.007C170.253 113.095 170.28 113.18 170.331 113.251C170.381 113.323 170.453 113.377 170.536 113.405Z" fill="#263238"/>
<path d="M172.742 119.671C173.17 119.889 173.644 120.003 174.124 120.003C174.604 120.003 175.078 119.889 175.506 119.671C176.271 119.234 176.271 118.516 175.506 118.079C175.078 117.861 174.604 117.747 174.124 117.747C173.644 117.747 173.17 117.861 172.742 118.079C171.962 118.516 171.962 119.234 172.742 119.671Z" fill="#263238"/>
<path d="M170.796 116.897C171.316 116.6 171.28 116.111 170.734 115.799L161.647 110.548C161.355 110.392 161.03 110.307 160.699 110.302C160.367 110.296 160.039 110.37 159.742 110.517C159.222 110.808 159.264 111.303 159.805 111.615L168.891 116.861C169.184 117.015 169.509 117.099 169.839 117.105C170.17 117.111 170.498 117.04 170.796 116.897Z" fill="#263238"/>
<path d="M52.9841 50.7159C53.0129 50.157 53.1736 49.6129 53.4531 49.1281C53.7326 48.6432 54.123 48.2315 54.5922 47.9265L136.938 0.386522C137.437 0.132448 137.988 0 138.548 0C139.108 0 139.66 0.132448 140.159 0.386522L141.97 1.42735C142.439 1.73181 142.829 2.14274 143.108 2.62661C143.387 3.11048 143.549 3.65358 143.578 4.21158V67.338C143.546 67.8961 143.384 68.439 143.105 68.9234C142.826 69.4077 142.437 69.82 141.97 70.1274L59.6246 117.667C59.1259 117.919 58.5751 118.05 58.0166 118.05C57.458 118.05 56.9072 117.919 56.4085 117.667L54.5922 116.627C54.1253 116.319 53.7367 115.907 53.4575 115.423C53.1783 114.938 53.0162 114.395 52.9841 113.837V50.7159Z" fill="#0D7FC3"/>
<path opacity="0.4" d="M53.4524 49.1288L58.0216 51.7621L143.11 2.63483C142.838 2.14515 142.448 1.7317 141.975 1.43267L140.154 0.391842C139.656 0.137812 139.105 0.00537109 138.546 0.00537109C137.987 0.00537109 137.435 0.137812 136.937 0.391842L54.5973 47.9266C54.1174 48.2206 53.7226 48.6351 53.4524 49.1288Z" fill="white"/>
<path opacity="0.1" d="M52.9841 50.7106V113.827C53.0139 114.386 53.1756 114.93 53.456 115.415C53.7364 115.9 54.1275 116.311 54.5974 116.616L56.4085 117.657C56.5485 117.738 56.6968 117.805 56.8508 117.855C57.0659 117.926 57.2872 117.976 57.5118 118.006C57.9347 118.06 58.3638 118.045 58.7816 117.959C58.8872 117.937 58.9915 117.909 59.0938 117.875C59.1602 117.858 59.2248 117.833 59.2864 117.803C59.1647 117.855 59.0337 117.882 58.9013 117.882C58.7689 117.882 58.6379 117.855 58.5161 117.803C58.3475 117.69 58.2125 117.534 58.1254 117.35C58.0384 117.167 58.0026 116.964 58.0218 116.762V53.6094C58.0057 53.3231 58.0773 53.0387 58.227 52.7942C58.3767 52.5497 58.5974 52.3566 58.8596 52.2407L58.0218 51.7515L53.4525 49.1182C53.1641 49.6008 53.0029 50.1487 52.9841 50.7106Z" fill="black"/>
<path opacity="0.2" d="M58.0217 51.762L96.1578 66.011C97.4767 66.5016 98.9234 66.5288 100.26 66.088C101.596 65.6473 102.743 64.7648 103.511 63.5859L109.637 54.2184L143.412 2.46826L110.854 54.5567L143.578 67.3641C143.545 67.9358 143.366 68.4894 143.058 68.9722L110.766 54.7024L103.647 66.0995C102.857 67.3644 101.637 68.3019 100.212 68.7398C98.7864 69.1776 97.2508 69.0865 95.8872 68.483L90.8235 66.2452L58.5109 117.798C58.3422 117.685 58.2072 117.529 58.1202 117.345C58.0332 117.162 57.9973 116.959 58.0165 116.757V115.716L90.6622 66.2036L58.0217 51.762Z" fill="black"/>
<path d="M67.4568 37.0238L61.8259 33.7816L61.7739 33.7504C59.2759 32.3401 55.8515 32.5535 52.0577 34.7392C44.4232 39.1471 38.2355 49.8677 38.2355 58.6783C38.2355 63.0758 39.7967 66.1723 42.2687 67.6191L47.3896 70.5386L48.6126 68.4934C50.0058 68.1765 51.3429 67.6501 52.5781 66.9321C60.2126 62.5242 66.4004 51.8036 66.4004 42.993C66.3998 41.8037 66.2547 40.6189 65.9684 39.4646L67.4568 37.0238Z" fill="#37474F"/>
<path d="M57.3973 37.8148C49.7576 42.2227 43.5698 52.9433 43.5698 61.7539C43.5698 70.5646 49.7576 74.145 57.3921 69.7371C65.0266 65.3292 71.2195 54.6034 71.2195 45.798C71.2195 36.9925 65.0318 33.4017 57.3973 37.8148Z" fill="#455A64"/>
<path d="M53.0986 54.8272C53.0495 54.7763 53.0138 54.714 52.9947 54.6458C52.9756 54.5777 52.9738 54.5059 52.9893 54.4369C53.0156 54.2491 53.087 54.0705 53.1975 53.9165L57.4701 47.5726C57.5794 47.4217 57.6835 47.2708 57.798 47.125C57.8932 46.9889 58.0155 46.8737 58.1571 46.7868L59.7183 45.9021C59.7701 45.8636 59.8321 45.8413 59.8965 45.8379C59.9609 45.8344 60.0249 45.8501 60.0804 45.8829C60.136 45.9157 60.1806 45.9641 60.2088 46.0221C60.2369 46.0801 60.2474 46.1452 60.2387 46.2091V60.8536C60.2304 61.038 60.1749 61.2172 60.0774 61.374C59.9913 61.5361 59.8638 61.6726 59.7079 61.7695L58.1154 62.6855C58.0625 62.7256 57.9994 62.7503 57.9332 62.7567C57.8671 62.7632 57.8004 62.7511 57.7407 62.7219C57.6863 62.684 57.643 62.632 57.6155 62.5716C57.5881 62.5112 57.5774 62.4444 57.5846 62.3784V51.1843L54.8004 55.3112C54.7084 55.4621 54.5746 55.5832 54.4153 55.6599C54.3576 55.6889 54.293 55.7013 54.2287 55.6958C54.1644 55.6903 54.1029 55.6671 54.051 55.6286L53.0986 54.8272Z" fill="#FAFAFA"/>
<path d="M180.606 105.302V104.371H180.835C181.18 103.738 181.705 103.222 182.344 102.888C183.646 102.228 185.084 101.885 186.544 101.885C188.003 101.885 189.442 102.228 190.743 102.888C191.382 103.222 191.907 103.738 192.253 104.371H192.482V105.271C192.482 106.161 191.92 107.056 190.743 107.738C189.445 108.392 188.01 108.733 186.556 108.732C185.102 108.731 183.668 108.389 182.37 107.733C181.178 107.067 180.601 106.172 180.606 105.302Z" fill="#263238"/>
<path d="M190.744 101.946C189.443 101.284 188.003 100.939 186.544 100.939C185.084 100.939 183.645 101.284 182.344 101.946C180.023 103.283 180.023 105.453 182.344 106.796C183.646 107.455 185.085 107.799 186.544 107.799C188.003 107.799 189.442 107.455 190.744 106.796C193.065 105.453 193.065 103.283 190.744 101.946Z" fill="#455A64"/>
<path d="M188.094 68.7014V103.975C188.082 104.11 188.034 104.238 187.955 104.348C187.877 104.458 187.77 104.545 187.647 104.6C187.312 104.771 186.941 104.861 186.564 104.861C186.188 104.861 185.817 104.771 185.482 104.6C185.359 104.545 185.252 104.458 185.173 104.348C185.095 104.238 185.047 104.11 185.034 103.975V68.7014H188.094Z" fill="#37474F"/>
<path d="M185.014 72.5422V73.6455L188.074 75.4097V74.3116L185.014 72.5422Z" fill="#263238"/>
<path d="M204.534 59.36L204.274 59.8804L201.474 65.4905L200.147 68.1811L195.651 77.1999L195.157 78.1939H195.068C194.887 78.1999 194.708 78.1586 194.548 78.0742L174.506 66.4897C174.357 66.3952 174.232 66.2667 174.142 66.1148C174.051 65.9629 173.998 65.7918 173.986 65.6154V57.8716C173.986 54.0101 176.531 49.4097 179.669 47.5986C181.157 46.7399 182.505 46.6723 183.52 47.2395L204.534 59.36Z" fill="#455A64"/>
<path d="M200.751 59.7712C199.481 60.2396 194.876 64.0439 194.876 70.039C194.876 75.0767 194.876 77.6892 194.876 78.1627H195.063H195.151L195.646 77.1687L200.147 68.1812L201.474 65.5166L201.782 64.9077L200.751 59.7712Z" fill="#37474F"/>
<path d="M206.184 71.824C206.134 71.9089 206.062 71.9789 205.976 72.0269L205.924 72.0582L195.573 78.069C195.444 78.1373 195.302 78.1764 195.157 78.1835H195.068V70.039C195.094 68.5654 195.399 67.1102 195.968 65.7507L196.489 66.0422L200.158 68.1603L205.851 71.4545L206.143 71.621C206.174 71.6431 206.196 71.6765 206.204 71.7142C206.211 71.752 206.204 71.7912 206.184 71.824Z" fill="#37474F"/>
<path d="M204.535 59.3601C203.53 58.8397 202.203 58.9282 200.751 59.7713C198.969 60.8911 197.529 62.4789 196.588 64.3613C196.349 64.8124 196.135 65.2763 195.948 65.7508C195.379 67.1103 195.073 68.5655 195.047 70.0391V78.1784H195.136C195.281 78.1713 195.424 78.1322 195.552 78.0639L205.898 72.0843L205.95 72.0531C206.032 71.9992 206.102 71.9304 206.158 71.8501C206.304 71.6676 206.388 71.4434 206.398 71.21V63.4974C206.424 61.4158 205.695 59.9742 204.535 59.3601ZM205.69 71.5379L195.802 77.2624C195.719 77.3093 195.651 77.2624 195.651 77.174V70.0391C195.677 68.6671 195.958 67.3119 196.479 66.0423C196.484 66.0146 196.495 65.9882 196.51 65.9642C196.709 65.4617 196.938 64.9716 197.197 64.4966C198.073 62.7678 199.402 61.3092 201.043 60.2761C201.678 59.8728 202.409 59.6448 203.161 59.6151C203.549 59.6108 203.932 59.7039 204.274 59.8857C205.263 60.4062 205.836 61.6916 205.836 63.4766V71.2829C205.833 71.3338 205.818 71.3833 205.793 71.4276C205.768 71.4719 205.732 71.5096 205.69 71.5379Z" fill="#455A64"/>
<path d="M205.841 63.4974V71.4754L196.473 66.0631C196.479 66.0355 196.49 66.0091 196.504 65.985C197.509 63.4766 199.2 61.3481 201.037 60.2969C201.673 59.8937 202.403 59.6657 203.155 59.636C204.816 59.6151 205.841 61.0983 205.841 63.4974Z" fill="#263238"/>
<path d="M188.698 67.4525L189.526 66.9737C189.702 66.8939 189.897 66.862 190.089 66.8812C190.282 66.9003 190.466 66.9699 190.624 67.083C191.078 67.3797 191.456 67.7794 191.728 68.2495C191.999 68.7197 192.156 69.2471 192.185 69.7891C192.204 69.9795 192.173 70.1715 192.094 70.3459C192.015 70.5203 191.893 70.6711 191.737 70.7831L190.972 71.2255L190.832 70.9913C190.675 70.9568 190.524 70.8989 190.384 70.8195C189.93 70.5228 189.552 70.1231 189.28 69.653C189.009 69.1828 188.853 68.6554 188.823 68.1134C188.824 67.9785 188.84 67.8442 188.87 67.7127L188.698 67.4525Z" fill="#E0E0E0"/>
<path d="M189.838 67.5411C190.292 67.837 190.67 68.2358 190.941 68.705C191.213 69.1743 191.369 69.7008 191.399 70.242C191.399 71.2412 190.697 71.642 189.838 71.1476C189.384 70.8505 189.006 70.4508 188.735 69.9807C188.463 69.5106 188.307 68.9833 188.277 68.4414C188.272 67.4474 188.974 67.0415 189.838 67.5411Z" fill="#FAFAFA"/>
<path d="M189.838 69.7735C189.718 69.7735 189.603 69.7258 189.518 69.6409C189.433 69.556 189.385 69.4408 189.385 69.3207V56.5133C189.385 56.3932 189.433 56.2781 189.518 56.1932C189.603 56.1082 189.718 56.0605 189.838 56.0605C189.958 56.0605 190.073 56.1082 190.158 56.1932C190.243 56.2781 190.291 56.3932 190.291 56.5133V69.3207C190.291 69.4408 190.243 69.556 190.158 69.6409C190.073 69.7258 189.958 69.7735 189.838 69.7735Z" fill="#EBEBEB"/>
<path d="M189.385 57.7781L184.847 55.1604L186.268 57.8926L184.847 58.9855L189.385 61.6084V57.7781Z" fill="#D3A338"/>
<mask id="mask0_1209_7787" style="mask-type:luminance" maskUnits="userSpaceOnUse" x="195" y="59" width="11" height="20">
<path d="M205.841 63.4975C205.841 61.1192 204.8 59.636 203.161 59.636C202.409 59.6657 201.678 59.8937 201.043 60.2969C199.205 61.3377 197.514 63.4767 196.51 65.9851C196.495 66.0091 196.484 66.0355 196.478 66.0631C195.958 67.331 195.677 68.6844 195.651 70.0547V78.5739L205.841 72.6932V63.4975Z" fill="white"/>
</mask>
<g mask="url(#mask0_1209_7787)">
<path d="M203.478 66.0997C203.475 66.0301 203.455 65.9623 203.421 65.9017C203.387 65.8411 203.338 65.7895 203.28 65.7511L193.018 59.8287C192.955 59.798 192.887 59.782 192.817 59.782C192.748 59.782 192.679 59.798 192.617 59.8287L192.388 59.9588C192.33 59.9973 192.282 60.0489 192.247 60.1095C192.213 60.1701 192.193 60.2379 192.19 60.3075V68.1814C192.195 68.2507 192.215 68.3181 192.249 68.3785C192.283 68.4389 192.331 68.4908 192.388 68.5301L202.666 74.4264C202.728 74.4571 202.797 74.4731 202.867 74.4731C202.936 74.4731 203.005 74.4571 203.067 74.4264L203.296 74.2963C203.354 74.2578 203.402 74.2062 203.437 74.1456C203.471 74.085 203.49 74.0172 203.494 73.9476L203.478 66.0997Z" fill="#F0F0F0"/>
<path d="M203.421 65.8912L202.854 66.2191L192.258 60.099C192.292 60.0382 192.34 59.9865 192.398 59.9481L192.627 59.818C192.689 59.7847 192.758 59.7673 192.828 59.7673C192.898 59.7673 192.967 59.7847 193.028 59.818L203.291 65.7403C203.345 65.7799 203.39 65.8316 203.421 65.8912Z" fill="#FAFAFA"/>
<path d="M203.478 66.0995V73.963C203.475 74.0326 203.455 74.1004 203.421 74.161C203.387 74.2216 203.338 74.2732 203.28 74.3117L203.051 74.4418L202.999 74.4678H202.916C202.863 74.4782 202.808 74.4782 202.755 74.4678H202.718H202.692C202.708 74.4756 202.725 74.4796 202.742 74.4796C202.759 74.4796 202.776 74.4756 202.791 74.4678C202.812 74.4538 202.829 74.4343 202.84 74.4114C202.851 74.3885 202.856 74.363 202.854 74.3377V66.4482C202.855 66.4125 202.845 66.3773 202.826 66.3475C202.806 66.3176 202.778 66.2946 202.744 66.2817L202.854 66.2192L203.421 65.8914C203.458 65.9544 203.478 66.0263 203.478 66.0995Z" fill="#E0E0E0"/>
<path d="M202.853 66.2191L198.097 67.9937C197.933 68.0542 197.753 68.0573 197.586 68.0025C197.42 67.9477 197.277 67.8382 197.181 67.6919L196.421 66.5262L192.211 60.073L196.265 66.5678L192.19 68.1811C192.194 68.2512 192.215 68.3192 192.253 68.3788L196.281 66.599L197.165 68.0198C197.264 68.1778 197.416 68.2949 197.594 68.3494C197.772 68.404 197.963 68.3922 198.133 68.3164L198.763 68.0406L202.791 74.4261C202.812 74.4121 202.829 74.3926 202.84 74.3696C202.851 74.3467 202.856 74.3213 202.853 74.296V74.1659L198.784 67.9937L202.853 66.2191Z" fill="#E0E0E0"/>
</g>
<path d="M212.674 64.8087L211.586 65.7143C211.302 66.133 210.991 66.5329 210.655 66.9112L207.532 70.5177L206.429 71.7927L199.33 75.8936L195.937 78.709H195.901C195.8 78.7256 195.696 78.7092 195.604 78.6622L195.287 78.4801C195.26 78.4646 195.237 78.4435 195.22 78.4182C195.202 78.3929 195.191 78.364 195.186 78.3336C195.181 78.3033 195.183 78.2722 195.191 78.2426C195.2 78.213 195.214 78.1857 195.235 78.1626L197.712 75.3003L199.273 73.4841C202.173 70.3152 205.501 67.5668 209.161 65.3187C210.629 64.4757 211.545 64.1842 211.872 64.3872L212.617 64.8191C212.617 64.8191 212.669 64.8087 212.674 64.8087Z" fill="#455A64"/>
<path d="M211.42 67.3588L209.338 69.7371L209.296 69.7892L207.35 72.0426C207.234 72.1698 207.101 72.2802 206.954 72.3704L196.026 78.6675C195.989 78.689 195.948 78.7031 195.906 78.7091H195.901L199.835 74.1659L200.064 73.9057C202.965 70.7398 206.293 67.9934 209.952 65.7455C211.383 64.9181 212.299 64.6215 212.648 64.7932C213.074 65.0274 212.679 65.9069 211.42 67.3588Z" fill="#37474F"/>
</svg>
